<?xml version="1.0" encoding="UTF-8" standalone="no"?>
<!-- Created with Inkscape (http://www.inkscape.org/) -->

<svg
   width="132.71185mm"
   height="59.486443mm"
   viewBox="0 0 132.71185 59.486443"
   version="1.1"
   id="svg5"
   xml:space="preserve"
   inkscape:version="1.2.1 (9c6d41e410, 2022-07-14)"
   sodipodi:docname="GustIcon.svg"
   xmlns:inkscape="http://www.inkscape.org/namespaces/inkscape"
   xmlns:sodipodi="http://sodipodi.sourceforge.net/DTD/sodipodi-0.dtd"
   xmlns:xlink="http://www.w3.org/1999/xlink"
   xmlns="http://www.w3.org/2000/svg"
   xmlns:svg="http://www.w3.org/2000/svg"><sodipodi:namedview
     id="namedview7"
     pagecolor="#ffffff"
     bordercolor="#000000"
     borderopacity="0.25"
     inkscape:showpageshadow="2"
     inkscape:pageopacity="0.0"
     inkscape:pagecheckerboard="0"
     inkscape:deskcolor="#d1d1d1"
     inkscape:document-units="mm"
     showgrid="false"
     inkscape:zoom="1.0444209"
     inkscape:cx="286.28305"
     inkscape:cy="119.20481"
     inkscape:window-width="1350"
     inkscape:window-height="1032"
     inkscape:window-x="9"
     inkscape:window-y="278"
     inkscape:window-maximized="0"
     inkscape:current-layer="layer1" /><defs
     id="defs2"><mask
       id="holes-1"><rect
         x="-60"
         y="-60"
         width="120"
         height="120"
         fill="#ffffff"
         id="rect764-3" /><circle
         id="hole-5"
         cy="-40"
         r="3"
         cx="0" /><use
         xlink:href="#hole-5"
         transform="rotate(72)"
         id="use767-8" /><use
         xlink:href="#hole-5"
         transform="rotate(144)"
         id="use769-5" /><use
         xlink:href="#hole-5"
         transform="rotate(-144)"
         id="use771-8" /><use
         xlink:href="#hole-5"
         transform="rotate(-72)"
         id="use773-2" /></mask><mask
       id="holes-1-4"><rect
         x="-60"
         y="-60"
         width="120"
         height="120"
         fill="#ffffff"
         id="rect764-3-9" /><circle
         id="hole-5-0"
         cy="-40"
         r="3"
         cx="0" /><use
         xlink:href="#hole-5-0"
         transform="rotate(72)"
         id="use767-8-3" /><use
         xlink:href="#hole-5-0"
         transform="rotate(144)"
         id="use769-5-8" /><use
         xlink:href="#hole-5-0"
         transform="rotate(-144)"
         id="use771-8-7" /><use
         xlink:href="#hole-5-0"
         transform="rotate(-72)"
         id="use773-2-3" /></mask></defs><g
     inkscape:label="Layer 1"
     inkscape:groupmode="layer"
     id="layer1"
     transform="translate(-49.824282,-78.398426)"><path
       style="display:inline;fill:#d6d6d6;fill-opacity:1;stroke:none;stroke-width:0.277;stroke-linecap:round;stroke-linejoin:round"
       d="m 86.132259,98.925434 c 1.511338,5.372226 3.799952,8.993226 2.026642,14.819816 4.939937,0.12667 52.296639,-2.22828 56.365969,9.75321 1.36951,4.03234 -7.40583,10.99602 -0.75999,13.93316 6.1696,2.72666 33.69686,-7.51613 34.0729,-12.91983 0.48441,-6.96094 -5.37923,-7.50726 -6.33326,-13.29984 -0.74798,-4.54152 6.81326,-6.48462 7.47324,-11.779854 1.3235,-10.61872 -4.37248,-14.008193 -12.53983,-18.746434 -8.16735,-4.738242 -19.61059,-1.161343 -16.08647,2.153305 3.52412,3.314648 3.50316,6.734134 -2.22114,8.060464 -22.97846,5.324152 -31.41865,5.712074 -61.998061,8.026003 z"
       id="path1844"
       sodipodi:nodetypes="ccssssszzsc" /><g
       id="g962"
       style="display:inline;stroke:#a6a6a6;stroke-opacity:1"><path
         style="fill:none;fill-opacity:1;stroke:#a6a6a6;stroke-width:2.44307;stroke-linecap:round;stroke-linejoin:round;stroke-dasharray:none;stroke-opacity:1"
         d="m 136.52005,75.541229 c 58.59727,-5.084888 177.97104,19.370998 111.62537,45.279701"
         id="path6325"
         sodipodi:nodetypes="cc"
         transform="matrix(0.52311226,0,0,0.52311226,21.810193,69.415435)" /><path
         style="fill:none;fill-opacity:1;stroke:#a6a6a6;stroke-width:2.06074;stroke-linecap:round;stroke-linejoin:round;stroke-dasharray:none;stroke-opacity:1"
         d="M 131.62928,58.239384 C 277.16379,53.102876 292.00891,34.582054 254.6836,27.562154"
         id="path6383"
         sodipodi:nodetypes="cc"
         transform="matrix(0.52311226,0,0,0.52311226,21.810193,69.415435)" /><path
         style="fill:none;fill-opacity:1;stroke:#a6a6a6;stroke-width:2.44307;stroke-linecap:round;stroke-linejoin:round;stroke-dasharray:none;stroke-opacity:1"
         d="m 137.11327,65.542967 c 61.46692,-0.513651 150.67154,-0.510035 149.8502,-17.540101 -0.63161,-13.096108 -20.0324,-5.136516 -8.04721,1.883383"
         id="path6439"
         sodipodi:nodetypes="csc"
         transform="matrix(0.52311226,0,0,0.52311226,21.810193,69.415435)" /><path
         style="fill:none;fill-opacity:1;stroke:#a6a6a6;stroke-width:2.06074;stroke-linecap:round;stroke-linejoin:round;stroke-dasharray:none;stroke-opacity:1"
         d="m 191.50449,71.736155 c 61.63814,-3.25312 89.88896,-8.56085 84.75244,5.136512 -5.13651,13.697367 -31.1615,-1.883386 -10.1018,-2.910689"
         id="path6441"
         sodipodi:nodetypes="csc"
         inkscape:label="path6441"
         transform="matrix(0.52311226,0,0,0.52311226,21.810193,69.415435)" /></g><rect
       style="display:inline;fill:#d5d5d5;fill-opacity:1;stroke:none;stroke-width:0.282277;stroke-linecap:round;stroke-linejoin:round;stroke-opacity:1"
       id="rect2154"
       width="15.706475"
       height="5.3832712"
       x="150.22479"
       y="118.02019" /><g
       aria-label="Gust"
       id="text3314"
       style="font-size:30.7884px;display:inline;stroke:#dadada;stroke-width:0.477;stroke-linecap:round;stroke-linejoin:round"><path
         d="m 109.05495,98.881835 q 0.015,-2.811246 -1.39811,-4.149218 -1.39811,-1.353006 -4.37472,-1.353006 -3.878615,0 -6.283959,2.495544 -2.390311,2.495544 -3.367481,7.546765 -0.962138,4.94599 0.511135,7.48663 1.473273,2.54065 5.291756,2.54065 1.698779,0 3.322379,-0.42094 1.63864,-0.42093 3.20212,-1.2628 l 1.1275,-5.78786 h -4.22438 l 0.3157,-1.60857 h 7.27616 l -1.63864,8.3736 q -2.22494,1.15757 -4.64532,1.74387 -2.42038,0.57127 -5.05122,0.57127 -5.081289,0 -7.516699,-3.17205 -2.435411,-3.18708 -1.41314,-8.4638 1.037305,-5.321822 4.720487,-8.478836 3.683183,-3.172047 8.869702,-3.172047 1.92428,0 3.87862,0.451002 1.96938,0.435969 4.10412,1.337973 l -1.02227,5.321823 z"
         style="font-style:italic;font-family:'DejaVu Serif';-inkscape-font-specification:'DejaVu Serif'"
         id="path1016" /><path
         d="m 127.95193,98.6413 h 2.76614 l -2.79621,14.38696 h 2.61581 l -0.30066,1.59354 h -5.38196 l 0.5412,-2.82628 q -1.0824,1.59354 -2.46548,2.43541 -1.36804,0.82684 -2.97661,0.82684 -2.66091,0 -3.62305,-1.51837 -0.5863,-0.90201 -0.5863,-2.45045 0,-1.00723 0.25557,-2.28507 l 1.65367,-8.55401 h -2.49554 l 0.3157,-1.60857 h 5.27672 l -1.80401,9.30567 q -0.30066,1.54844 -0.30066,2.57072 0,0.91703 0.24053,1.42817 0.4961,1.0824 2.33018,1.0824 1.92427,0 3.20211,-1.41314 1.29287,-1.41314 1.80401,-4.10411 z"
         style="font-style:italic;font-family:'DejaVu Serif';-inkscape-font-specification:'DejaVu Serif'"
         id="path1018" /><path
         d="m 133.95026,110.00655 h 1.59354 q -0.0601,0.43597 -0.0601,0.82684 0,2.73608 3.71325,2.73608 3.72829,0 4.26949,-2.73608 0.0451,-0.2706 0.0451,-0.75167 0,-0.46604 -0.51114,-1.02227 -0.51113,-0.57127 -2.66091,-1.30791 l -1.87917,-0.6765 q -1.92428,-0.66147 -2.55568,-1.50334 -0.61637,-0.85691 -0.61637,-1.83408 0,-0.39087 0.0752,-0.84187 0.43596,-2.19487 2.28507,-3.442646 1.84911,-1.247772 4.52506,-1.247772 2.66091,0 5.45712,1.292872 l -0.6765,3.487746 h -1.59354 q 0.0601,-0.34577 0.0601,-0.64643 0,-1.09744 -0.7667,-1.86414 -0.75167,-0.781742 -2.51058,-0.781742 -3.53285,0 -4.01392,2.465482 -0.0601,0.25556 -0.0601,0.70657 0,0.46603 0.48107,0.9922 0.4961,0.52617 2.40534,1.15757 l 2.05958,0.6765 q 2.13474,0.70657 2.93151,1.77395 0.55623,0.75167 0.55623,1.4883 0,3.15702 -2.52561,4.79566 -1.98441,1.3079 -5.02115,1.3079 -3.03675,0 -5.72773,-1.32294 z"
         style="font-style:italic;font-family:'DejaVu Serif';-inkscape-font-specification:'DejaVu Serif'"
         id="path1020" /><path
         d="m 152.80214,100.24987 h -2.43541 l 0.3157,-1.60857 h 2.43541 l 0.96214,-4.961021 h 2.78118 l -0.96214,4.961021 h 5.20155 l -0.3157,1.60857 h -5.20155 l -1.96938,10.14755 q -0.2255,1.18764 -0.2255,1.87917 0,0.48107 0.10523,0.72161 0.28564,0.57127 1.33798,0.57127 1.0824,0 1.69877,-0.63141 0.6314,-0.64643 0.93207,-2.07461 h 2.08964 q -0.5412,2.17985 -1.804,3.18708 -1.26281,1.00724 -3.44265,1.00724 -2.39031,0 -3.18708,-1.06737 -0.48107,-0.64644 -0.48107,-1.84911 0,-0.7667 0.19543,-1.74387 z"
         style="font-style:italic;font-family:'DejaVu Serif';-inkscape-font-specification:'DejaVu Serif'"
         id="path1022" /></g><g
       aria-label="Making Change Control A Breeze"
       id="text9349"
       style="font-size:5.64444px;font-family:'DejaVu Serif';-inkscape-font-specification:'DejaVu Serif';display:inline;stroke:#dadada;stroke-width:0.227;stroke-linecap:round;stroke-linejoin:round"><path
         d="m 76.785025,123.06334 0.06339,-0.33349 h 0.523654 l 0.672482,-3.44784 h -0.523654 l 0.06339,-0.33349 h 1.697742 l 0.661457,2.64032 1.69223,-2.64032 h 1.694986 l -0.06339,0.33349 h -0.52641 l -0.672482,3.44784 h 0.52641 l -0.06339,0.33349 h -2.116665 l 0.06339,-0.33349 h 0.523654 l 0.611848,-3.13916 -1.835545,2.86907 h -0.697287 l -0.711067,-2.86907 -0.611848,3.13916 h 0.523654 l -0.06339,0.33349 z"
         style="font-style:italic;font-weight:bold"
         id="path1025" /><path
         d="m 85.510757,120.64902 q -0.0083,-0.16537 -0.165365,-0.16537 -0.369314,0 -0.730359,0.44098 -0.168121,0.20395 -0.300412,0.8847 -0.09922,0.50987 -0.02756,0.70831 0.07166,0.19568 0.333485,0.19568 0.256315,0 0.416167,-0.22876 0.162608,-0.22875 0.261827,-0.74138 z m 0.937065,-0.42719 -0.482313,2.50802 0.366558,-0.006 -0.06615,0.339 H 85.04222 l 0.07166,-0.37207 q -0.303168,0.452 -0.840603,0.452 -0.531922,0 -0.768944,-0.35003 -0.237023,-0.35277 -0.115755,-0.96462 0.118511,-0.61461 0.647677,-1.14653 0.625629,-0.62838 1.463475,-0.62838 0.826823,0 0.94809,0.16812 z"
         style="font-style:italic;font-weight:bold"
         id="path1027" /><path
         d="m 88.018784,123.06334 h -0.975651 l 0.768945,-3.95772 h -0.416167 l 0.06339,-0.33073 h 1.391817 l -0.534678,2.75332 1.389061,-1.06109 H 89.35548 l 0.06339,-0.33349 h 0.793749 l -0.06339,0.33349 -0.887456,0.67799 0.926041,1.58474 h 0.316949 l -0.06339,0.33349 h -1.077625 l -0.804774,-1.37804 -0.319704,0.24254 z"
         style="font-style:italic;font-weight:bold"
         id="path1029" /><path
         d="m 91.593412,119.30405 q 0.0441,-0.22324 0.225998,-0.37482 0.184657,-0.15434 0.407899,-0.15434 0.21773,0 0.341754,0.15434 0.09095,0.113 0.09095,0.26458 0,0.0524 -0.01102,0.11024 -0.04134,0.21773 -0.225998,0.37207 -0.181901,0.15159 -0.399631,0.15159 -0.223242,0 -0.347265,-0.15159 -0.09371,-0.113 -0.09371,-0.26458 0,-0.0524 0.01102,-0.10749 z m 0.399631,3.4258 h 0.418923 l -0.06339,0.33349 h -1.394574 l 0.504362,-2.59622 h -0.416168 l 0.06339,-0.33349 h 1.391818 z"
         style="font-style:italic;font-weight:bold"
         id="path1031" /><path
         d="m 93.222253,123.06334 0.504361,-2.59622 h -0.416167 l 0.06339,-0.33349 h 1.391817 l -0.07993,0.41341 q 0.228754,-0.26182 0.476801,-0.37758 0.248046,-0.11575 0.592556,-0.11575 0.493337,0 0.689018,0.29214 0.12678,0.18466 0.12678,0.48231 0,0.16812 -0.04134,0.37207 l -0.297656,1.52962 h 0.418923 l -0.06339,0.33349 h -1.394573 l 0.366558,-1.89067 q 0.03858,-0.19292 0.03858,-0.32521 0,-0.12127 -0.03307,-0.19293 -0.06615,-0.14332 -0.300412,-0.14332 -0.2949,0 -0.476801,0.21773 -0.179145,0.21498 -0.270096,0.68627 l -0.319704,1.64813 z"
         style="font-style:italic;font-weight:bold"
         id="path1033" /><path
         d="m 99.729343,120.64902 q -0.01378,-0.16537 -0.190169,-0.16537 -0.501605,0 -0.815798,0.44098 -0.195681,0.27836 -0.314192,0.8847 -0.09922,0.50987 -0.01654,0.70831 0.08544,0.19568 0.385851,0.19568 0.286631,0 0.46302,-0.22876 0.176389,-0.22875 0.275608,-0.74138 z m 1.041797,-0.33073 -0.52641,2.70646 q -0.13229,0.678 -0.62563,0.95361 -0.600824,0.33899 -1.306379,0.33899 -0.292144,0 -0.584288,-0.0469 -0.292143,-0.0441 -0.592556,-0.13505 l 0.137804,-0.70004 h 0.311437 q -0.0028,0.0248 -0.0028,0.0468 0,0.25356 0.151584,0.3831 0.165364,0.14056 0.520898,0.14056 0.451996,0 0.677994,-0.21773 0.228754,-0.21498 0.336241,-0.76344 l 0.06339,-0.33348 q -0.336241,0.452 -0.956358,0.452 -0.614605,0 -0.89848,-0.35003 -0.283876,-0.35277 -0.165365,-0.96462 0.146072,-0.74965 0.843359,-1.28984 0.625629,-0.48507 1.543402,-0.48507 0.741387,0 1.072117,0.26458 z"
         style="font-style:italic;font-weight:bold"
         id="path1035" /><path
         d="m 106.95577,121.88925 q -0.28663,0.63665 -0.76894,0.94534 -0.48232,0.30868 -1.19338,0.30868 -1.0418,0 -1.53514,-0.57327 -0.49058,-0.57602 -0.30041,-1.55994 0.19017,-0.98667 0.90675,-1.55993 0.71933,-0.57602 1.76113,-0.57602 0.36656,0 0.74414,0.0882 0.38034,0.0882 0.78824,0.26734 l -0.19568,1.01148 h -0.35003 q -0.006,-0.51814 -0.23977,-0.77446 -0.23427,-0.25907 -0.70005,-0.25907 -0.60082,0 -0.9784,0.44373 -0.37759,0.44097 -0.55673,1.35874 -0.17915,0.91778 0.0276,1.35875 0.20671,0.44097 0.81304,0.44097 0.41066,0 0.71383,-0.22875 0.30592,-0.22876 0.51538,-0.69178 z"
         style="font-style:italic;font-weight:bold"
         id="path1037" /><path
         d="m 107.6062,123.06334 0.76895,-3.95772 h -0.43546 l 0.0634,-0.33073 h 1.41111 l -0.34451,1.77215 q 0.22875,-0.26182 0.4768,-0.37758 0.24805,-0.11575 0.59256,-0.11575 0.49333,0 0.68901,0.29214 0.12403,0.18466 0.12403,0.48231 0,0.16812 -0.0386,0.37207 l -0.29765,1.52962 h 0.41892 l -0.0634,0.33349 h -1.39457 l 0.36655,-1.89067 q 0.0386,-0.19292 0.0386,-0.32521 0,-0.12127 -0.0331,-0.19293 -0.0661,-0.14332 -0.30042,-0.14332 -0.2949,0 -0.4768,0.21773 -0.17914,0.21498 -0.27009,0.68627 l -0.31971,1.64813 z"
         style="font-style:italic;font-weight:bold"
         id="path1039" /><path
         d="m 113.83493,120.64902 q -0.008,-0.16537 -0.16536,-0.16537 -0.36932,0 -0.73036,0.44098 -0.16812,0.20395 -0.30041,0.8847 -0.0992,0.50987 -0.0276,0.70831 0.0717,0.19568 0.33348,0.19568 0.25632,0 0.41617,-0.22876 0.16261,-0.22875 0.26183,-0.74138 z m 0.93707,-0.42719 -0.48231,2.50802 0.36655,-0.006 -0.0661,0.339 h -1.2237 l 0.0717,-0.37207 q -0.30317,0.452 -0.8406,0.452 -0.53193,0 -0.76895,-0.35003 -0.23702,-0.35277 -0.11575,-0.96462 0.11851,-0.61461 0.64767,-1.14653 0.62563,-0.62838 1.46348,-0.62838 0.82682,0 0.94809,0.16812 z"
         style="font-style:italic;font-weight:bold"
         id="path1041" /><path
         d="m 115.49133,123.06334 0.50437,-2.59622 h -0.41617 l 0.0634,-0.33349 h 1.39182 l -0.0799,0.41341 q 0.22875,-0.26182 0.4768,-0.37758 0.24805,-0.11575 0.59256,-0.11575 0.49333,0 0.68901,0.29214 0.12678,0.18466 0.12678,0.48231 0,0.16812 -0.0413,0.37207 l -0.29765,1.52962 h 0.41892 l -0.0634,0.33349 H 117.462 l 0.36655,-1.89067 q 0.0386,-0.19292 0.0386,-0.32521 0,-0.12127 -0.0331,-0.19293 -0.0662,-0.14332 -0.30042,-0.14332 -0.2949,0 -0.4768,0.21773 -0.17914,0.21498 -0.27009,0.68627 l -0.31971,1.64813 z"
         style="font-style:italic;font-weight:bold"
         id="path1043" /><path
         d="m 121.99842,120.64902 q -0.0138,-0.16537 -0.19016,-0.16537 -0.50161,0 -0.8158,0.44098 -0.19568,0.27836 -0.3142,0.8847 -0.0992,0.50987 -0.0165,0.70831 0.0854,0.19568 0.38585,0.19568 0.28663,0 0.46302,-0.22876 0.17639,-0.22875 0.27561,-0.74138 z m 1.0418,-0.33073 -0.52641,2.70646 q -0.13229,0.678 -0.62563,0.95361 -0.60082,0.33899 -1.30638,0.33899 -0.29214,0 -0.58429,-0.0469 -0.29214,-0.0441 -0.59255,-0.13505 l 0.1378,-0.70004 h 0.31144 q -0.003,0.0248 -0.003,0.0468 0,0.25356 0.15159,0.3831 0.16536,0.14056 0.52089,0.14056 0.452,0 0.678,-0.21773 0.22875,-0.21498 0.33624,-0.76344 l 0.0634,-0.33348 q -0.33624,0.452 -0.95636,0.452 -0.6146,0 -0.89848,-0.35003 -0.28387,-0.35277 -0.16536,-0.96462 0.14607,-0.74965 0.84336,-1.28984 0.62562,-0.48507 1.5434,-0.48507 0.74138,0 1.07211,0.26458 z"
         style="font-style:italic;font-weight:bold"
         id="path1045" /><path
         d="m 125.5951,120.77029 q 0,-0.40515 -0.34175,-0.40515 -0.26183,0 -0.41617,0.24805 -0.15434,0.24529 -0.2949,1.01975 0,0 0.0606,0 0.84336,0 0.9729,-0.66973 0.0193,-0.10473 0.0193,-0.19292 z m -1.11897,1.19062 q -0.0165,0.0937 -0.0165,0.28939 0.003,0.58153 0.56775,0.58153 0.31695,0 0.5457,-0.16812 0.22876,-0.16812 0.34451,-0.48783 h 0.45751 q -0.21497,0.49885 -0.61461,0.73312 -0.39687,0.23427 -1.03077,0.23427 -0.76067,0 -1.08865,-0.39964 -0.22875,-0.28111 -0.22875,-0.72484 0,-0.19017 0.0441,-0.41341 0.14056,-0.73588 0.63665,-1.14377 0.49609,-0.4079 1.2237,-0.4079 0.52641,0 0.89021,0.2067 0.36656,0.20395 0.36656,0.57602 0,0.0744 -0.0165,0.15434 -0.17363,0.89297 -2.08084,0.97014 z"
         style="font-style:italic;font-weight:bold"
         id="path1047" /><path
         d="m 132.81602,121.88925 q -0.28663,0.63665 -0.76895,0.94534 -0.48231,0.30868 -1.19338,0.30868 -1.04179,0 -1.53513,-0.57327 -0.49058,-0.57602 -0.30041,-1.55994 0.19017,-0.98667 0.90674,-1.55993 0.71934,-0.57602 1.76114,-0.57602 0.36655,0 0.74414,0.0882 0.38033,0.0882 0.78823,0.26734 l -0.19568,1.01148 h -0.35002 q -0.006,-0.51814 -0.23978,-0.77446 -0.23426,-0.25907 -0.70004,-0.25907 -0.60082,0 -0.97841,0.44373 -0.37758,0.44097 -0.55672,1.35874 -0.17915,0.91778 0.0276,1.35875 0.2067,0.44097 0.81304,0.44097 0.41065,0 0.71382,-0.22875 0.30593,-0.22876 0.51539,-0.69178 z"
         style="font-style:italic;font-weight:bold"
         id="path1049" /><path
         d="m 134.9189,122.83183 q 0.30868,0 0.48507,-0.26458 0.17639,-0.26459 0.31419,-0.97014 0.0909,-0.46027 0.0909,-0.73312 0,-0.14331 -0.0276,-0.23702 -0.0717,-0.26183 -0.38309,-0.26183 -0.31144,0 -0.49058,0.26734 -0.17915,0.26458 -0.3142,0.96463 -0.0882,0.45199 -0.0882,0.72209 0,0.15158 0.0276,0.24529 0.0744,0.26734 0.38585,0.26734 z m 1.23197,-0.0992 q -0.51815,0.41066 -1.2926,0.41066 -0.77446,0 -1.13275,-0.41066 -0.25907,-0.29766 -0.25907,-0.75516 0,-0.17639 0.0386,-0.38034 0.14056,-0.72485 0.6587,-1.13275 0.5209,-0.41065 1.29535,-0.41065 0.77722,0 1.1355,0.4079 0.25908,0.2949 0.25908,0.7524 0,0.17915 -0.0413,0.3831 -0.14056,0.72209 -0.66145,1.1355 z"
         style="font-style:italic;font-weight:bold"
         id="path1051" /><path
         d="m 137.35527,123.06334 0.50436,-2.59622 h -0.41616 l 0.0634,-0.33349 h 1.39181 l -0.0799,0.41341 q 0.22875,-0.26182 0.4768,-0.37758 0.24804,-0.11575 0.59255,-0.11575 0.49334,0 0.68902,0.29214 0.12678,0.18466 0.12678,0.48231 0,0.16812 -0.0413,0.37207 l -0.29766,1.52962 h 0.41893 l -0.0634,0.33349 h -1.39458 l 0.36656,-1.89067 q 0.0386,-0.19292 0.0386,-0.32521 0,-0.12127 -0.0331,-0.19293 -0.0661,-0.14332 -0.30041,-0.14332 -0.2949,0 -0.4768,0.21773 -0.17914,0.21498 -0.27009,0.68627 l -0.31971,1.64813 z"
         style="font-style:italic;font-weight:bold"
         id="path1053" /><path
         d="m 141.84216,120.46712 h -0.42444 l 0.0634,-0.33349 h 0.42444 l 0.17638,-0.9095 h 0.97565 l -0.17638,0.9095 h 0.81304 l -0.0634,0.33349 h -0.81304 l -0.35003,1.7942 q -0.0469,0.24529 -0.0469,0.36932 0,0.0744 0.0138,0.10748 0.0441,0.0937 0.20395,0.0937 0.17639,0 0.28388,-0.11851 0.10748,-0.11851 0.16261,-0.36656 h 0.41065 q -0.11024,0.44097 -0.36105,0.62012 -0.2508,0.17639 -0.77996,0.17639 -0.60358,0 -0.78273,-0.19017 -0.11575,-0.12127 -0.11575,-0.37483 0,-0.1378 0.0358,-0.31695 z"
         style="font-style:italic;font-weight:bold"
         id="path1055" /><path
         d="m 147.06492,120.10056 -0.17088,0.87367 h -0.31144 q 0.008,-0.0579 0.008,-0.10748 0,-0.15434 -0.0661,-0.23978 -0.0882,-0.11576 -0.29766,-0.11576 -0.3197,0 -0.55948,0.28112 -0.23978,0.28112 -0.33624,0.77997 l -0.28939,1.49104 h -0.97565 l 0.50436,-2.59622 h -0.44648 l 0.0634,-0.33349 h 1.42214 l -0.0992,0.5209 q 0.20119,-0.30592 0.46578,-0.452 0.26458,-0.14882 0.60633,-0.14882 0.0854,0 0.20395,0.0138 0.12127,0.011 0.27837,0.0331 z"
         style="font-style:italic;font-weight:bold"
         id="path1057" /><path
         d="m 148.36854,122.83183 q 0.30868,0 0.48507,-0.26458 0.17639,-0.26459 0.3142,-0.97014 0.0909,-0.46027 0.0909,-0.73312 0,-0.14331 -0.0276,-0.23702 -0.0717,-0.26183 -0.3831,-0.26183 -0.31144,0 -0.49058,0.26734 -0.17915,0.26458 -0.31419,0.96463 -0.0882,0.45199 -0.0882,0.72209 0,0.15158 0.0276,0.24529 0.0744,0.26734 0.38585,0.26734 z m 1.23197,-0.0992 q -0.51814,0.41066 -1.2926,0.41066 -0.77446,0 -1.13275,-0.41066 -0.25907,-0.29766 -0.25907,-0.75516 0,-0.17639 0.0386,-0.38034 0.14056,-0.72485 0.6587,-1.13275 0.5209,-0.41065 1.29535,-0.41065 0.77722,0 1.13551,0.4079 0.25907,0.2949 0.25907,0.7524 0,0.17915 -0.0413,0.3831 -0.14056,0.72209 -0.66146,1.1355 z"
         style="font-style:italic;font-weight:bold"
         id="path1059" /><path
         d="m 151.71993,122.72985 h 0.41892 l -0.0634,0.33349 h -1.39457 l 0.76894,-3.95772 h -0.41617 l 0.0634,-0.33073 h 1.39182 z"
         style="font-style:italic;font-weight:bold"
         id="path1061" /><path
         d="m 154.1563,123.06334 0.0634,-0.33349 h 0.33625 l 2.28478,-3.78133 h 0.6587 l 0.8158,3.78133 h 0.39136 l -0.0634,0.33349 h -1.92649 l 0.0634,-0.33349 h 0.40238 l -0.17363,-0.8406 h -1.54616 l -0.50987,0.8406 h 0.49058 l -0.0634,0.33349 z m 1.50481,-1.50757 h 1.27606 l -0.32797,-1.57372 z"
         style="font-style:italic;font-weight:bold"
         id="path1063" /><path
         d="m 160.80947,123.06334 0.0634,-0.33349 h 0.52641 l 0.67248,-3.44784 h -0.52641 l 0.0634,-0.33349 h 2.43912 q 0.75241,0 1.08038,0.25356 0.32798,0.25356 0.22876,0.76343 -0.0689,0.36656 -0.37207,0.58153 -0.30317,0.21498 -0.82682,0.2701 0.60909,0.0579 0.88745,0.33073 0.27837,0.27285 0.19017,0.72485 -0.11851,0.61184 -0.63665,0.90123 -0.51814,0.28939 -1.50206,0.28939 z m 2.05327,-2.39779 h 0.36105 q 0.47404,0 0.73587,-0.17087 0.26183,-0.17363 0.33073,-0.52917 0.0717,-0.35829 -0.11851,-0.5209 -0.19017,-0.1626 -0.678,-0.1626 h -0.36104 z m -0.40239,2.0643 h 0.39412 q 0.52641,0 0.82131,-0.20946 0.2949,-0.20946 0.38034,-0.64767 0.0854,-0.44098 -0.12953,-0.65871 -0.21222,-0.21773 -0.73312,-0.21773 h -0.39412 z"
         style="font-style:italic;font-weight:bold"
         id="path1065" /><path
         d="m 169.02807,120.10056 -0.17087,0.87367 h -0.31144 q 0.008,-0.0579 0.008,-0.10748 0,-0.15434 -0.0662,-0.23978 -0.0882,-0.11576 -0.29765,-0.11576 -0.31971,0 -0.55949,0.28112 -0.23977,0.28112 -0.33624,0.77997 l -0.28938,1.49104 h -0.97565 l 0.50436,-2.59622 h -0.44649 l 0.0634,-0.33349 h 1.42214 l -0.0992,0.5209 q 0.20119,-0.30592 0.46577,-0.452 0.26459,-0.14882 0.60634,-0.14882 0.0854,0 0.20395,0.0138 0.12127,0.011 0.27836,0.0331 z"
         style="font-style:italic;font-weight:bold"
         id="path1067" /><path
         d="m 171.05655,120.77029 q 0,-0.40515 -0.34175,-0.40515 -0.26183,0 -0.41617,0.24805 -0.15434,0.24529 -0.2949,1.01975 0,0 0.0606,0 0.84336,0 0.9729,-0.66973 0.0193,-0.10473 0.0193,-0.19292 z m -1.11897,1.19062 q -0.0165,0.0937 -0.0165,0.28939 0.003,0.58153 0.56775,0.58153 0.31695,0 0.5457,-0.16812 0.22875,-0.16812 0.34451,-0.48783 h 0.45751 q -0.21498,0.49885 -0.61461,0.73312 -0.39687,0.23427 -1.03077,0.23427 -0.76067,0 -1.08865,-0.39964 -0.22875,-0.28111 -0.22875,-0.72484 0,-0.19017 0.0441,-0.41341 0.14056,-0.73588 0.63665,-1.14377 0.49609,-0.4079 1.2237,-0.4079 0.52641,0 0.89021,0.2067 0.36656,0.20395 0.36656,0.57602 0,0.0744 -0.0165,0.15434 -0.17363,0.89297 -2.08084,0.97014 z"
         style="font-style:italic;font-weight:bold"
         id="path1069" /><path
         d="m 174.64771,120.77029 q 0,-0.40515 -0.34175,-0.40515 -0.26183,0 -0.41617,0.24805 -0.15434,0.24529 -0.2949,1.01975 0,0 0.0606,0 0.84335,0 0.97289,-0.66973 0.0193,-0.10473 0.0193,-0.19292 z m -1.11896,1.19062 q -0.0165,0.0937 -0.0165,0.28939 0.003,0.58153 0.56775,0.58153 0.31695,0 0.5457,-0.16812 0.22876,-0.16812 0.34451,-0.48783 h 0.45751 q -0.21497,0.49885 -0.6146,0.73312 -0.39688,0.23427 -1.03077,0.23427 -0.76068,0 -1.08865,-0.39964 -0.22876,-0.28111 -0.22876,-0.72484 0,-0.19017 0.0441,-0.41341 0.14056,-0.73588 0.63665,-1.14377 0.4961,-0.4079 1.2237,-0.4079 0.52641,0 0.89021,0.2067 0.36656,0.20395 0.36656,0.57602 0,0.0744 -0.0165,0.15434 -0.17363,0.89297 -2.08083,0.97014 z"
         style="font-style:italic;font-weight:bold"
         id="path1071" /><path
         d="m 179.10704,120.46161 -1.92925,2.06429 q 0.091,0.0331 0.17087,0.0799 0.35003,0.18741 0.56776,0.18741 0.33072,0 0.82682,-0.39963 l -0.0854,0.43546 q -0.48783,0.46302 -0.9288,0.46302 -0.22875,-0.011 -0.58153,-0.18741 -0.39412,-0.20119 -0.54846,-0.20119 -0.15434,0 -0.31419,0.0634 -0.15985,0.0634 -0.226,0.10197 l -0.27285,-0.006 0.0634,-0.33349 1.92374,-2.06154 q -0.0882,-0.0303 -0.16536,-0.0772 -0.35003,-0.18741 -0.56776,-0.18741 -0.33072,0 -0.82682,0.39963 l 0.0854,-0.43546 q 0.48783,-0.46302 0.9288,-0.46302 0.22875,0.011 0.58153,0.18741 0.39412,0.20119 0.54846,0.20119 0.15434,0 0.31419,-0.0634 0.15985,-0.0634 0.226,-0.10197 l 0.27285,0.006 z"
         style="font-style:italic;font-weight:bold"
         id="path1073" /><path
         d="m 181.44419,120.77029 q 0,-0.40515 -0.34175,-0.40515 -0.26183,0 -0.41617,0.24805 -0.15434,0.24529 -0.2949,1.01975 0,0 0.0606,0 0.84336,0 0.9729,-0.66973 0.0193,-0.10473 0.0193,-0.19292 z m -1.11897,1.19062 q -0.0165,0.0937 -0.0165,0.28939 0.003,0.58153 0.56775,0.58153 0.31695,0 0.5457,-0.16812 0.22876,-0.16812 0.34451,-0.48783 h 0.45751 q -0.21497,0.49885 -0.6146,0.73312 -0.39688,0.23427 -1.03078,0.23427 -0.76067,0 -1.08865,-0.39964 -0.22875,-0.28111 -0.22875,-0.72484 0,-0.19017 0.0441,-0.41341 0.14056,-0.73588 0.63665,-1.14377 0.49609,-0.4079 1.2237,-0.4079 0.52641,0 0.89021,0.2067 0.36656,0.20395 0.36656,0.57602 0,0.0744 -0.0165,0.15434 -0.17363,0.89297 -2.08084,0.97014 z"
         style="font-style:italic;font-weight:bold"
         id="path1075" /></g><g
       id="g3105"
       transform="matrix(0.42092425,0,0,0.42092425,32.471638,77.790011)"
       style="display:inline"><path
         fill="#f05133"
         d="M 123.78004,65.93485 87.043175,29.199807 c -2.11526,-2.11617 -5.546381,-2.11617 -7.663476,0 l -7.62776,7.629598 9.676176,9.67617 c 2.24895,-0.760049 4.82756,-0.249877 6.61958,1.54294 1.80301,1.803928 2.30847,4.404521 1.52921,6.661722 l 9.3273,9.326377 c 2.257195,-0.778358 4.859605,-0.274796 6.661695,1.5301 2.51817,2.518184 2.51817,6.598524 0,9.118544 -2.52,2.51906 -6.600345,2.51906 -9.121255,0 -1.89367,-1.8955 -2.3625,-4.67924 -1.40194,-7.01241 l -8.69913,-8.698223 v 22.889693 c 0.61352,0.30387 1.19316,0.70876 1.70412,1.21969 2.51817,2.51819 2.51817,6.59853 0,9.11945 -2.51817,2.51726 -6.601265,2.51726 -9.117602,0 -2.518168,-2.52182 -2.518168,-6.60219 0,-9.11945 0.622672,-0.62175 1.34333,-1.0924 2.112516,-1.40741 V 58.573541 C 80.273423,58.258599 79.5546,57.79245 78.930093,57.16613 c -1.907398,-1.906474 -2.366165,-4.706692 -1.3882,-7.049032 l -9.53882,-9.540675 -25.19084,25.188082 c -2.116177,2.118043 -2.116177,5.549143 0,7.665313 L 79.550935,110.1658 c 2.115263,2.11617 5.54547,2.11617 7.66347,0 L 123.78004,73.600128 c 2.11618,-2.11617 2.11618,-5.54911 0,-7.665278 z"
         id="path833"
         style="stroke-width:0.915696" /><g
         id="logo"
         transform="matrix(0,-0.15539813,0.15539813,0,83.475269,87.684859)"><g
           id="gear"
           mask="url(#holes)"><circle
             r="43"
             fill="none"
             stroke="#000000"
             stroke-width="9"
             id="circle687"
             cx="0"
             cy="0" /><g
             id="cogs"><polygon
               id="cog"
               stroke="#000000"
               stroke-width="3"
               stroke-linejoin="round"
               points="51,0 46,-3 46,3 " /><use
               xlink:href="#cog"
               transform="rotate(11.25)"
               id="use690" /><use
               xlink:href="#cog"
               transform="rotate(22.5)"
               id="use692" /><use
               xlink:href="#cog"
               transform="rotate(33.75)"
               id="use694" /><use
               xlink:href="#cog"
               transform="rotate(45)"
               id="use696" /><use
               xlink:href="#cog"
               transform="rotate(56.25)"
               id="use698" /><use
               xlink:href="#cog"
               transform="rotate(67.5)"
               id="use700" /><use
               xlink:href="#cog"
               transform="rotate(78.75)"
               id="use702" /><use
               xlink:href="#cog"
               transform="rotate(90)"
               id="use704" /><use
               xlink:href="#cog"
               transform="rotate(101.25)"
               id="use706" /><use
               xlink:href="#cog"
               transform="rotate(112.5)"
               id="use708" /><use
               xlink:href="#cog"
               transform="rotate(123.75)"
               id="use710" /><use
               xlink:href="#cog"
               transform="rotate(135)"
               id="use712" /><use
               xlink:href="#cog"
               transform="rotate(146.25)"
               id="use714" /><use
               xlink:href="#cog"
               transform="rotate(157.5)"
               id="use716" /><use
               xlink:href="#cog"
               transform="rotate(168.75)"
               id="use718" /><use
               xlink:href="#cog"
               transform="scale(-1)"
               id="use720" /><use
               xlink:href="#cog"
               transform="rotate(-168.75)"
               id="use722" /><use
               xlink:href="#cog"
               transform="rotate(-157.5)"
               id="use724" /><use
               xlink:href="#cog"
               transform="rotate(-146.25)"
               id="use726" /><use
               xlink:href="#cog"
               transform="rotate(-135)"
               id="use728" /><use
               xlink:href="#cog"
               transform="rotate(-123.75)"
               id="use730" /><use
               xlink:href="#cog"
               transform="rotate(-112.5)"
               id="use732" /><use
               xlink:href="#cog"
               transform="rotate(-101.25)"
               id="use734" /><use
               xlink:href="#cog"
               transform="rotate(-90)"
               id="use736" /><use
               xlink:href="#cog"
               transform="rotate(-78.75)"
               id="use738" /><use
               xlink:href="#cog"
               transform="rotate(-67.5)"
               id="use740" /><use
               xlink:href="#cog"
               transform="rotate(-56.25)"
               id="use742" /><use
               xlink:href="#cog"
               transform="rotate(-45)"
               id="use744" /><use
               xlink:href="#cog"
               transform="rotate(-33.75)"
               id="use746" /><use
               xlink:href="#cog"
               transform="rotate(-22.5)"
               id="use748" /><use
               xlink:href="#cog"
               transform="rotate(-11.25)"
               id="use750" /></g><g
             id="mounts"><polygon
               id="mount"
               stroke="#000000"
               stroke-width="6"
               stroke-linejoin="round"
               points="0,-35 7,-42 -7,-42 " /><use
               xlink:href="#mount"
               transform="rotate(72)"
               id="use754" /><use
               xlink:href="#mount"
               transform="rotate(144)"
               id="use756" /><use
               xlink:href="#mount"
               transform="rotate(-144)"
               id="use758" /><use
               xlink:href="#mount"
               transform="rotate(-72)"
               id="use760" /></g></g><mask
           id="holes"><rect
             x="-60"
             y="-60"
             width="120"
             height="120"
             fill="#ffffff"
             id="rect764" /><circle
             id="hole"
             cy="-40"
             r="3"
             cx="0" /><use
             xlink:href="#hole"
             transform="rotate(72)"
             id="use767" /><use
             xlink:href="#hole"
             transform="rotate(144)"
             id="use769" /><use
             xlink:href="#hole"
             transform="rotate(-144)"
             id="use771" /><use
             xlink:href="#hole"
             transform="rotate(-72)"
             id="use773" /></mask></g><g
         id="logo-1"
         transform="matrix(0,0.14333476,-0.14333476,0,101.01541,70.109125)"><g
           id="gear-5"
           mask="url(#holes-1)"><circle
             r="43"
             fill="none"
             stroke="#000000"
             stroke-width="9"
             id="circle687-3"
             cx="0"
             cy="0" /><g
             id="cogs-0"><polygon
               id="cog-1"
               stroke="#000000"
               stroke-width="3"
               stroke-linejoin="round"
               points="46,-3 46,3 51,0 " /><use
               xlink:href="#cog-1"
               transform="rotate(11.25)"
               id="use690-5" /><use
               xlink:href="#cog-1"
               transform="rotate(22.5)"
               id="use692-4" /><use
               xlink:href="#cog-1"
               transform="rotate(33.75)"
               id="use694-1" /><use
               xlink:href="#cog-1"
               transform="rotate(45)"
               id="use696-9" /><use
               xlink:href="#cog-1"
               transform="rotate(56.25)"
               id="use698-2" /><use
               xlink:href="#cog-1"
               transform="rotate(67.5)"
               id="use700-7" /><use
               xlink:href="#cog-1"
               transform="rotate(78.75)"
               id="use702-4" /><use
               xlink:href="#cog-1"
               transform="rotate(90)"
               id="use704-7" /><use
               xlink:href="#cog-1"
               transform="rotate(101.25)"
               id="use706-9" /><use
               xlink:href="#cog-1"
               transform="rotate(112.5)"
               id="use708-3" /><use
               xlink:href="#cog-1"
               transform="rotate(123.75)"
               id="use710-1" /><use
               xlink:href="#cog-1"
               transform="rotate(135)"
               id="use712-5" /><use
               xlink:href="#cog-1"
               transform="rotate(146.25)"
               id="use714-6" /><use
               xlink:href="#cog-1"
               transform="rotate(157.5)"
               id="use716-1" /><use
               xlink:href="#cog-1"
               transform="rotate(168.75)"
               id="use718-0" /><use
               xlink:href="#cog-1"
               transform="scale(-1)"
               id="use720-0" /><use
               xlink:href="#cog-1"
               transform="rotate(-168.75)"
               id="use722-3" /><use
               xlink:href="#cog-1"
               transform="rotate(-157.5)"
               id="use724-5" /><use
               xlink:href="#cog-1"
               transform="rotate(-146.25)"
               id="use726-9" /><use
               xlink:href="#cog-1"
               transform="rotate(-135)"
               id="use728-0" /><use
               xlink:href="#cog-1"
               transform="rotate(-123.75)"
               id="use730-4" /><use
               xlink:href="#cog-1"
               transform="rotate(-112.5)"
               id="use732-5" /><use
               xlink:href="#cog-1"
               transform="rotate(-101.25)"
               id="use734-0" /><use
               xlink:href="#cog-1"
               transform="rotate(-90)"
               id="use736-4" /><use
               xlink:href="#cog-1"
               transform="rotate(-78.75)"
               id="use738-9" /><use
               xlink:href="#cog-1"
               transform="rotate(-67.5)"
               id="use740-1" /><use
               xlink:href="#cog-1"
               transform="rotate(-56.25)"
               id="use742-4" /><use
               xlink:href="#cog-1"
               transform="rotate(-45)"
               id="use744-4" /><use
               xlink:href="#cog-1"
               transform="rotate(-33.75)"
               id="use746-8" /><use
               xlink:href="#cog-1"
               transform="rotate(-22.5)"
               id="use748-4" /><use
               xlink:href="#cog-1"
               transform="rotate(-11.25)"
               id="use750-0" /></g><g
             id="mounts-3"><polygon
               id="mount-3"
               stroke="#000000"
               stroke-width="6"
               stroke-linejoin="round"
               points="7,-42 -7,-42 0,-35 " /><use
               xlink:href="#mount-3"
               transform="rotate(72)"
               id="use754-9" /><use
               xlink:href="#mount-3"
               transform="rotate(144)"
               id="use756-3" /><use
               xlink:href="#mount-3"
               transform="rotate(-144)"
               id="use758-8" /><use
               xlink:href="#mount-3"
               transform="rotate(-72)"
               id="use760-6" /></g></g><mask
           id="mask2656"><rect
             x="-60"
             y="-60"
             width="120"
             height="120"
             fill="#ffffff"
             id="rect2644" /><circle
             id="circle2646"
             cy="-40"
             r="3"
             cx="0" /><use
             xlink:href="#hole-5"
             transform="rotate(72)"
             id="use2648" /><use
             xlink:href="#hole-5"
             transform="rotate(144)"
             id="use2650" /><use
             xlink:href="#hole-5"
             transform="rotate(-144)"
             id="use2652" /><use
             xlink:href="#hole-5"
             transform="rotate(-72)"
             id="use2654" /></mask></g><g
         id="logo-1-8"
         transform="matrix(0,0.14333476,-0.14333476,0,83.08233,52.339609)"
         style="display:inline"><g
           id="gear-5-4"
           mask="url(#holes-1-4)"><circle
             r="43"
             fill="none"
             stroke="#000000"
             stroke-width="9"
             id="circle687-3-5"
             cx="0"
             cy="0" /><g
             id="cogs-0-2"><polygon
               id="cog-1-4"
               stroke="#000000"
               stroke-width="3"
               stroke-linejoin="round"
               points="46,3 51,0 46,-3 " /><use
               xlink:href="#cog-1-4"
               transform="rotate(11.25)"
               id="use690-5-2" /><use
               xlink:href="#cog-1-4"
               transform="rotate(22.5)"
               id="use692-4-8" /><use
               xlink:href="#cog-1-4"
               transform="rotate(33.75)"
               id="use694-1-1" /><use
               xlink:href="#cog-1-4"
               transform="rotate(45)"
               id="use696-9-5" /><use
               xlink:href="#cog-1-4"
               transform="rotate(56.25)"
               id="use698-2-9" /><use
               xlink:href="#cog-1-4"
               transform="rotate(67.5)"
               id="use700-7-4" /><use
               xlink:href="#cog-1-4"
               transform="rotate(78.75)"
               id="use702-4-1" /><use
               xlink:href="#cog-1-4"
               transform="rotate(90)"
               id="use704-7-5" /><use
               xlink:href="#cog-1-4"
               transform="rotate(101.25)"
               id="use706-9-4" /><use
               xlink:href="#cog-1-4"
               transform="rotate(112.5)"
               id="use708-3-7" /><use
               xlink:href="#cog-1-4"
               transform="rotate(123.75)"
               id="use710-1-6" /><use
               xlink:href="#cog-1-4"
               transform="rotate(135)"
               id="use712-5-7" /><use
               xlink:href="#cog-1-4"
               transform="rotate(146.25)"
               id="use714-6-6" /><use
               xlink:href="#cog-1-4"
               transform="rotate(157.5)"
               id="use716-1-4" /><use
               xlink:href="#cog-1-4"
               transform="rotate(168.75)"
               id="use718-0-9" /><use
               xlink:href="#cog-1-4"
               transform="scale(-1)"
               id="use720-0-1" /><use
               xlink:href="#cog-1-4"
               transform="rotate(-168.75)"
               id="use722-3-5" /><use
               xlink:href="#cog-1-4"
               transform="rotate(-157.5)"
               id="use724-5-3" /><use
               xlink:href="#cog-1-4"
               transform="rotate(-146.25)"
               id="use726-9-9" /><use
               xlink:href="#cog-1-4"
               transform="rotate(-135)"
               id="use728-0-4" /><use
               xlink:href="#cog-1-4"
               transform="rotate(-123.75)"
               id="use730-4-0" /><use
               xlink:href="#cog-1-4"
               transform="rotate(-112.5)"
               id="use732-5-6" /><use
               xlink:href="#cog-1-4"
               transform="rotate(-101.25)"
               id="use734-0-7" /><use
               xlink:href="#cog-1-4"
               transform="rotate(-90)"
               id="use736-4-3" /><use
               xlink:href="#cog-1-4"
               transform="rotate(-78.75)"
               id="use738-9-8" /><use
               xlink:href="#cog-1-4"
               transform="rotate(-67.5)"
               id="use740-1-2" /><use
               xlink:href="#cog-1-4"
               transform="rotate(-56.25)"
               id="use742-4-1" /><use
               xlink:href="#cog-1-4"
               transform="rotate(-45)"
               id="use744-4-8" /><use
               xlink:href="#cog-1-4"
               transform="rotate(-33.75)"
               id="use746-8-7" /><use
               xlink:href="#cog-1-4"
               transform="rotate(-22.5)"
               id="use748-4-8" /><use
               xlink:href="#cog-1-4"
               transform="rotate(-11.25)"
               id="use750-0-7" /></g><g
             id="mounts-3-7"><polygon
               id="mount-3-7"
               stroke="#000000"
               stroke-width="6"
               stroke-linejoin="round"
               points="-7,-42 0,-35 7,-42 " /><use
               xlink:href="#mount-3-7"
               transform="rotate(72)"
               id="use754-9-5" /><use
               xlink:href="#mount-3-7"
               transform="rotate(144)"
               id="use756-3-0" /><use
               xlink:href="#mount-3-7"
               transform="rotate(-144)"
               id="use758-8-2" /><use
               xlink:href="#mount-3-7"
               transform="rotate(-72)"
               id="use760-6-5" /></g></g><mask
           id="mask2656-0"><rect
             x="-60"
             y="-60"
             width="120"
             height="120"
             fill="#ffffff"
             id="rect2644-1" /><circle
             id="circle2646-6"
             cy="-40"
             r="3"
             cx="0" /><use
             xlink:href="#hole-5-0"
             transform="rotate(72)"
             id="use2648-3" /><use
             xlink:href="#hole-5-0"
             transform="rotate(144)"
             id="use2650-7" /><use
             xlink:href="#hole-5-0"
             transform="rotate(-144)"
             id="use2652-5" /><use
             xlink:href="#hole-5-0"
             transform="rotate(-72)"
             id="use2654-5" /></mask></g></g></g></svg>
