<?xml version="1.0" encoding="UTF-8" standalone="no"?>
<!-- Created with Inkscape (http://www.inkscape.org/) -->

<svg
   width="132.71185mm"
   height="59.486443mm"
   viewBox="0 0 132.71185 59.486443"
   version="1.1"
   id="svg5"
   xml:space="preserve"
   inkscape:version="1.2.1 (9c6d41e410, 2022-07-14)"
   sodipodi:docname="GustIcon_lightmode.svg"
   xmlns:inkscape="http://www.inkscape.org/namespaces/inkscape"
   xmlns:sodipodi="http://sodipodi.sourceforge.net/DTD/sodipodi-0.dtd"
   xmlns:xlink="http://www.w3.org/1999/xlink"
   xmlns="http://www.w3.org/2000/svg"
   xmlns:svg="http://www.w3.org/2000/svg"><sodipodi:namedview
     id="namedview7"
     pagecolor="#ffffff"
     bordercolor="#000000"
     borderopacity="0.25"
     inkscape:showpageshadow="2"
     inkscape:pageopacity="0.0"
     inkscape:pagecheckerboard="0"
     inkscape:deskcolor="#d1d1d1"
     inkscape:document-units="mm"
     showgrid="false"
     inkscape:zoom="2.0888418"
     inkscape:cx="196.75975"
     inkscape:cy="113.93874"
     inkscape:window-width="1920"
     inkscape:window-height="1009"
     inkscape:window-x="1432"
     inkscape:window-y="-8"
     inkscape:window-maximized="1"
     inkscape:current-layer="layer1" /><defs
     id="defs2"><mask
       id="holes-1"><rect
         x="-60"
         y="-60"
         width="120"
         height="120"
         fill="#ffffff"
         id="rect764-3" /><circle
         id="hole-5"
         cy="-40"
         r="3"
         cx="0" /><use
         xlink:href="#hole-5"
         transform="rotate(72)"
         id="use767-8" /><use
         xlink:href="#hole-5"
         transform="rotate(144)"
         id="use769-5" /><use
         xlink:href="#hole-5"
         transform="rotate(-144)"
         id="use771-8" /><use
         xlink:href="#hole-5"
         transform="rotate(-72)"
         id="use773-2" /></mask><mask
       id="holes-1-4"><rect
         x="-60"
         y="-60"
         width="120"
         height="120"
         fill="#ffffff"
         id="rect764-3-9" /><circle
         id="hole-5-0"
         cy="-40"
         r="3"
         cx="0" /><use
         xlink:href="#hole-5-0"
         transform="rotate(72)"
         id="use767-8-3" /><use
         xlink:href="#hole-5-0"
         transform="rotate(144)"
         id="use769-5-8" /><use
         xlink:href="#hole-5-0"
         transform="rotate(-144)"
         id="use771-8-7" /><use
         xlink:href="#hole-5-0"
         transform="rotate(-72)"
         id="use773-2-3" /></mask><mask
       id="holes-1-4-7"><rect
         x="-60"
         y="-60"
         width="120"
         height="120"
         fill="#ffffff"
         id="rect764-3-9-0" /><circle
         id="hole-5-0-1"
         cy="-40"
         r="3"
         cx="0" /><use
         xlink:href="#hole-5-0-1"
         transform="rotate(72)"
         id="use767-8-3-4" /><use
         xlink:href="#hole-5-0-1"
         transform="rotate(144)"
         id="use769-5-8-3" /><use
         xlink:href="#hole-5-0-1"
         transform="rotate(-144)"
         id="use771-8-7-1" /><use
         xlink:href="#hole-5-0-1"
         transform="rotate(-72)"
         id="use773-2-3-1" /></mask><mask
       id="holes-1-4-5"><rect
         x="-60"
         y="-60"
         width="120"
         height="120"
         fill="#ffffff"
         id="rect764-3-9-6" /><circle
         id="hole-5-0-9"
         cy="-40"
         r="3"
         cx="0" /><use
         xlink:href="#hole-5-0-9"
         transform="rotate(72)"
         id="use767-8-3-2" /><use
         xlink:href="#hole-5-0-9"
         transform="rotate(144)"
         id="use769-5-8-1" /><use
         xlink:href="#hole-5-0-9"
         transform="rotate(-144)"
         id="use771-8-7-5" /><use
         xlink:href="#hole-5-0-9"
         transform="rotate(-72)"
         id="use773-2-3-8" /></mask></defs><g
     inkscape:label="Layer 1"
     inkscape:groupmode="layer"
     id="layer1"
     transform="translate(-49.824282,-78.398426)"><path
       style="display:inline;fill:#9a9a9a;fill-opacity:0.24295774;stroke:none;stroke-width:0.277;stroke-linecap:round;stroke-linejoin:round"
       d="m 86.132259,98.925434 c 1.511338,5.372226 3.799952,8.993226 2.026642,14.819816 4.939937,0.12667 52.296639,-2.22828 56.365969,9.75321 1.36951,4.03234 -7.40583,10.99602 -0.75999,13.93316 6.1696,2.72666 33.69686,-7.51613 34.0729,-12.91983 0.48441,-6.96094 -5.37923,-7.50726 -6.33326,-13.29984 -0.74798,-4.54152 6.81326,-6.48462 7.47324,-11.779854 1.3235,-10.61872 -4.37248,-14.008193 -12.53983,-18.746434 -8.16735,-4.738242 -19.61059,-1.161343 -16.08647,2.153305 3.52412,3.314648 3.50316,6.734134 -2.22114,8.060464 -22.97846,5.324152 -31.41865,5.712074 -61.998061,8.026003 z"
       id="path1844"
       sodipodi:nodetypes="ccssssszzsc" /><g
       id="g962"
       style="display:inline;stroke:#6e6e6e;stroke-opacity:0.13732395"><path
         style="fill:none;fill-opacity:1;stroke:#6e6e6e;stroke-width:2.44307;stroke-linecap:round;stroke-linejoin:round;stroke-dasharray:none;stroke-opacity:0.13732395"
         d="m 136.52005,75.541229 c 58.59727,-5.084888 177.97104,19.370998 111.62537,45.279701"
         id="path6325"
         sodipodi:nodetypes="cc"
         transform="matrix(0.52311226,0,0,0.52311226,21.810193,69.415435)" /><path
         style="fill:none;fill-opacity:1;stroke:#6e6e6e;stroke-width:2.06074;stroke-linecap:round;stroke-linejoin:round;stroke-dasharray:none;stroke-opacity:0.13732395"
         d="M 131.62928,58.239384 C 277.16379,53.102876 292.00891,34.582054 254.6836,27.562154"
         id="path6383"
         sodipodi:nodetypes="cc"
         transform="matrix(0.52311226,0,0,0.52311226,21.810193,69.415435)" /><path
         style="fill:none;fill-opacity:1;stroke:#6e6e6e;stroke-width:2.44307;stroke-linecap:round;stroke-linejoin:round;stroke-dasharray:none;stroke-opacity:0.13732395"
         d="m 137.11327,65.542967 c 61.46692,-0.513651 150.67154,-0.510035 149.8502,-17.540101 -0.63161,-13.096108 -20.0324,-5.136516 -8.04721,1.883383"
         id="path6439"
         sodipodi:nodetypes="csc"
         transform="matrix(0.52311226,0,0,0.52311226,21.810193,69.415435)" /><path
         style="fill:none;fill-opacity:1;stroke:#6e6e6e;stroke-width:2.06074;stroke-linecap:round;stroke-linejoin:round;stroke-dasharray:none;stroke-opacity:0.13732395"
         d="m 191.50449,71.736155 c 61.63814,-3.25312 89.88896,-8.56085 84.75244,5.136512 -5.13651,13.697367 -31.1615,-1.883386 -10.1018,-2.910689"
         id="path6441"
         sodipodi:nodetypes="csc"
         inkscape:label="path6441"
         transform="matrix(0.52311226,0,0,0.52311226,21.810193,69.415435)" /></g><g
       aria-label="Gust"
       id="text3314"
       style="font-size:30.7884px;display:inline;stroke:none;stroke-width:0.477;stroke-linecap:round;stroke-linejoin:round;fill:#515151;stroke-opacity:1;fill-opacity:1"><path
         d="m 109.05495,98.881835 q 0.015,-2.811246 -1.39811,-4.149218 -1.39811,-1.353006 -4.37472,-1.353006 -3.878615,0 -6.283959,2.495544 -2.390311,2.495544 -3.367481,7.546765 -0.962138,4.94599 0.511135,7.48663 1.473273,2.54065 5.291756,2.54065 1.698779,0 3.322379,-0.42094 1.63864,-0.42093 3.20212,-1.2628 l 1.1275,-5.78786 h -4.22438 l 0.3157,-1.60857 h 7.27616 l -1.63864,8.3736 q -2.22494,1.15757 -4.64532,1.74387 -2.42038,0.57127 -5.05122,0.57127 -5.081289,0 -7.516699,-3.17205 -2.435411,-3.18708 -1.41314,-8.4638 1.037305,-5.321822 4.720487,-8.478836 3.683183,-3.172047 8.869702,-3.172047 1.92428,0 3.87862,0.451002 1.96938,0.435969 4.10412,1.337973 l -1.02227,5.321823 z"
         style="font-style:italic;font-family:'DejaVu Serif';-inkscape-font-specification:'DejaVu Serif';fill:#515151;stroke:none;stroke-opacity:1;fill-opacity:1"
         id="path1016" /><path
         d="m 127.95193,98.6413 h 2.76614 l -2.79621,14.38696 h 2.61581 l -0.30066,1.59354 h -5.38196 l 0.5412,-2.82628 q -1.0824,1.59354 -2.46548,2.43541 -1.36804,0.82684 -2.97661,0.82684 -2.66091,0 -3.62305,-1.51837 -0.5863,-0.90201 -0.5863,-2.45045 0,-1.00723 0.25557,-2.28507 l 1.65367,-8.55401 h -2.49554 l 0.3157,-1.60857 h 5.27672 l -1.80401,9.30567 q -0.30066,1.54844 -0.30066,2.57072 0,0.91703 0.24053,1.42817 0.4961,1.0824 2.33018,1.0824 1.92427,0 3.20211,-1.41314 1.29287,-1.41314 1.80401,-4.10411 z"
         style="font-style:italic;font-family:'DejaVu Serif';-inkscape-font-specification:'DejaVu Serif';fill:#515151;stroke:none;stroke-opacity:1;fill-opacity:1"
         id="path1018" /><path
         d="m 133.95026,110.00655 h 1.59354 q -0.0601,0.43597 -0.0601,0.82684 0,2.73608 3.71325,2.73608 3.72829,0 4.26949,-2.73608 0.0451,-0.2706 0.0451,-0.75167 0,-0.46604 -0.51114,-1.02227 -0.51113,-0.57127 -2.66091,-1.30791 l -1.87917,-0.6765 q -1.92428,-0.66147 -2.55568,-1.50334 -0.61637,-0.85691 -0.61637,-1.83408 0,-0.39087 0.0752,-0.84187 0.43596,-2.19487 2.28507,-3.442646 1.84911,-1.247772 4.52506,-1.247772 2.66091,0 5.45712,1.292872 l -0.6765,3.487746 h -1.59354 q 0.0601,-0.34577 0.0601,-0.64643 0,-1.09744 -0.7667,-1.86414 -0.75167,-0.781742 -2.51058,-0.781742 -3.53285,0 -4.01392,2.465482 -0.0601,0.25556 -0.0601,0.70657 0,0.46603 0.48107,0.9922 0.4961,0.52617 2.40534,1.15757 l 2.05958,0.6765 q 2.13474,0.70657 2.93151,1.77395 0.55623,0.75167 0.55623,1.4883 0,3.15702 -2.52561,4.79566 -1.98441,1.3079 -5.02115,1.3079 -3.03675,0 -5.72773,-1.32294 z"
         style="font-style:italic;font-family:'DejaVu Serif';-inkscape-font-specification:'DejaVu Serif';fill:#515151;stroke:none;stroke-opacity:1;fill-opacity:1"
         id="path1020" /><path
         d="m 152.80214,100.24987 h -2.43541 l 0.3157,-1.60857 h 2.43541 l 0.96214,-4.961021 h 2.78118 l -0.96214,4.961021 h 5.20155 l -0.3157,1.60857 h -5.20155 l -1.96938,10.14755 q -0.2255,1.18764 -0.2255,1.87917 0,0.48107 0.10523,0.72161 0.28564,0.57127 1.33798,0.57127 1.0824,0 1.69877,-0.63141 0.6314,-0.64643 0.93207,-2.07461 h 2.08964 q -0.5412,2.17985 -1.804,3.18708 -1.26281,1.00724 -3.44265,1.00724 -2.39031,0 -3.18708,-1.06737 -0.48107,-0.64644 -0.48107,-1.84911 0,-0.7667 0.19543,-1.74387 z"
         style="font-style:italic;font-family:'DejaVu Serif';-inkscape-font-specification:'DejaVu Serif';fill:#515151;stroke:none;stroke-opacity:1;fill-opacity:1"
         id="path1022" /></g><g
       aria-label="Making Change Control A Breeze"
       id="text9349"
       style="font-size:5.64444px;font-family:'DejaVu Serif';-inkscape-font-specification:'DejaVu Serif';display:inline;stroke:none;stroke-width:0.127;stroke-linecap:round;stroke-linejoin:round;fill:#515151;fill-opacity:1;stroke-opacity:1;stroke-dasharray:none"><path
         d="m 76.785025,123.06334 0.06339,-0.33349 h 0.523654 l 0.672482,-3.44784 h -0.523654 l 0.06339,-0.33349 h 1.697742 l 0.661457,2.64032 1.69223,-2.64032 h 1.694986 l -0.06339,0.33349 h -0.52641 l -0.672482,3.44784 h 0.52641 l -0.06339,0.33349 h -2.116665 l 0.06339,-0.33349 h 0.523654 l 0.611848,-3.13916 -1.835545,2.86907 h -0.697287 l -0.711067,-2.86907 -0.611848,3.13916 h 0.523654 l -0.06339,0.33349 z"
         style="font-style:italic;font-weight:bold;fill:#515151;fill-opacity:1;stroke:none;stroke-opacity:1;stroke-width:0.127;stroke-dasharray:none"
         id="path1025" /><path
         d="m 85.510757,120.64902 q -0.0083,-0.16537 -0.165365,-0.16537 -0.369314,0 -0.730359,0.44098 -0.168121,0.20395 -0.300412,0.8847 -0.09922,0.50987 -0.02756,0.70831 0.07166,0.19568 0.333485,0.19568 0.256315,0 0.416167,-0.22876 0.162608,-0.22875 0.261827,-0.74138 z m 0.937065,-0.42719 -0.482313,2.50802 0.366558,-0.006 -0.06615,0.339 H 85.04222 l 0.07166,-0.37207 q -0.303168,0.452 -0.840603,0.452 -0.531922,0 -0.768944,-0.35003 -0.237023,-0.35277 -0.115755,-0.96462 0.118511,-0.61461 0.647677,-1.14653 0.625629,-0.62838 1.463475,-0.62838 0.826823,0 0.94809,0.16812 z"
         style="font-style:italic;font-weight:bold;fill:#515151;fill-opacity:1;stroke:none;stroke-opacity:1;stroke-width:0.127;stroke-dasharray:none"
         id="path1027" /><path
         d="m 88.018784,123.06334 h -0.975651 l 0.768945,-3.95772 h -0.416167 l 0.06339,-0.33073 h 1.391817 l -0.534678,2.75332 1.389061,-1.06109 H 89.35548 l 0.06339,-0.33349 h 0.793749 l -0.06339,0.33349 -0.887456,0.67799 0.926041,1.58474 h 0.316949 l -0.06339,0.33349 h -1.077625 l -0.804774,-1.37804 -0.319704,0.24254 z"
         style="font-style:italic;font-weight:bold;fill:#515151;fill-opacity:1;stroke:none;stroke-opacity:1;stroke-width:0.127;stroke-dasharray:none"
         id="path1029" /><path
         d="m 91.593412,119.30405 q 0.0441,-0.22324 0.225998,-0.37482 0.184657,-0.15434 0.407899,-0.15434 0.21773,0 0.341754,0.15434 0.09095,0.113 0.09095,0.26458 0,0.0524 -0.01102,0.11024 -0.04134,0.21773 -0.225998,0.37207 -0.181901,0.15159 -0.399631,0.15159 -0.223242,0 -0.347265,-0.15159 -0.09371,-0.113 -0.09371,-0.26458 0,-0.0524 0.01102,-0.10749 z m 0.399631,3.4258 h 0.418923 l -0.06339,0.33349 h -1.394574 l 0.504362,-2.59622 h -0.416168 l 0.06339,-0.33349 h 1.391818 z"
         style="font-style:italic;font-weight:bold;fill:#515151;fill-opacity:1;stroke:none;stroke-opacity:1;stroke-width:0.127;stroke-dasharray:none"
         id="path1031" /><path
         d="m 93.222253,123.06334 0.504361,-2.59622 h -0.416167 l 0.06339,-0.33349 h 1.391817 l -0.07993,0.41341 q 0.228754,-0.26182 0.476801,-0.37758 0.248046,-0.11575 0.592556,-0.11575 0.493337,0 0.689018,0.29214 0.12678,0.18466 0.12678,0.48231 0,0.16812 -0.04134,0.37207 l -0.297656,1.52962 h 0.418923 l -0.06339,0.33349 h -1.394573 l 0.366558,-1.89067 q 0.03858,-0.19292 0.03858,-0.32521 0,-0.12127 -0.03307,-0.19293 -0.06615,-0.14332 -0.300412,-0.14332 -0.2949,0 -0.476801,0.21773 -0.179145,0.21498 -0.270096,0.68627 l -0.319704,1.64813 z"
         style="font-style:italic;font-weight:bold;fill:#515151;fill-opacity:1;stroke:none;stroke-opacity:1;stroke-width:0.127;stroke-dasharray:none"
         id="path1033" /><path
         d="m 99.729343,120.64902 q -0.01378,-0.16537 -0.190169,-0.16537 -0.501605,0 -0.815798,0.44098 -0.195681,0.27836 -0.314192,0.8847 -0.09922,0.50987 -0.01654,0.70831 0.08544,0.19568 0.385851,0.19568 0.286631,0 0.46302,-0.22876 0.176389,-0.22875 0.275608,-0.74138 z m 1.041797,-0.33073 -0.52641,2.70646 q -0.13229,0.678 -0.62563,0.95361 -0.600824,0.33899 -1.306379,0.33899 -0.292144,0 -0.584288,-0.0469 -0.292143,-0.0441 -0.592556,-0.13505 l 0.137804,-0.70004 h 0.311437 q -0.0028,0.0248 -0.0028,0.0468 0,0.25356 0.151584,0.3831 0.165364,0.14056 0.520898,0.14056 0.451996,0 0.677994,-0.21773 0.228754,-0.21498 0.336241,-0.76344 l 0.06339,-0.33348 q -0.336241,0.452 -0.956358,0.452 -0.614605,0 -0.89848,-0.35003 -0.283876,-0.35277 -0.165365,-0.96462 0.146072,-0.74965 0.843359,-1.28984 0.625629,-0.48507 1.543402,-0.48507 0.741387,0 1.072117,0.26458 z"
         style="font-style:italic;font-weight:bold;fill:#515151;fill-opacity:1;stroke:none;stroke-opacity:1;stroke-width:0.127;stroke-dasharray:none"
         id="path1035" /><path
         d="m 106.95577,121.88925 q -0.28663,0.63665 -0.76894,0.94534 -0.48232,0.30868 -1.19338,0.30868 -1.0418,0 -1.53514,-0.57327 -0.49058,-0.57602 -0.30041,-1.55994 0.19017,-0.98667 0.90675,-1.55993 0.71933,-0.57602 1.76113,-0.57602 0.36656,0 0.74414,0.0882 0.38034,0.0882 0.78824,0.26734 l -0.19568,1.01148 h -0.35003 q -0.006,-0.51814 -0.23977,-0.77446 -0.23427,-0.25907 -0.70005,-0.25907 -0.60082,0 -0.9784,0.44373 -0.37759,0.44097 -0.55673,1.35874 -0.17915,0.91778 0.0276,1.35875 0.20671,0.44097 0.81304,0.44097 0.41066,0 0.71383,-0.22875 0.30592,-0.22876 0.51538,-0.69178 z"
         style="font-style:italic;font-weight:bold;fill:#515151;fill-opacity:1;stroke:none;stroke-opacity:1;stroke-width:0.127;stroke-dasharray:none"
         id="path1037" /><path
         d="m 107.6062,123.06334 0.76895,-3.95772 h -0.43546 l 0.0634,-0.33073 h 1.41111 l -0.34451,1.77215 q 0.22875,-0.26182 0.4768,-0.37758 0.24805,-0.11575 0.59256,-0.11575 0.49333,0 0.68901,0.29214 0.12403,0.18466 0.12403,0.48231 0,0.16812 -0.0386,0.37207 l -0.29765,1.52962 h 0.41892 l -0.0634,0.33349 h -1.39457 l 0.36655,-1.89067 q 0.0386,-0.19292 0.0386,-0.32521 0,-0.12127 -0.0331,-0.19293 -0.0661,-0.14332 -0.30042,-0.14332 -0.2949,0 -0.4768,0.21773 -0.17914,0.21498 -0.27009,0.68627 l -0.31971,1.64813 z"
         style="font-style:italic;font-weight:bold;fill:#515151;fill-opacity:1;stroke:none;stroke-opacity:1;stroke-width:0.127;stroke-dasharray:none"
         id="path1039" /><path
         d="m 113.83493,120.64902 q -0.008,-0.16537 -0.16536,-0.16537 -0.36932,0 -0.73036,0.44098 -0.16812,0.20395 -0.30041,0.8847 -0.0992,0.50987 -0.0276,0.70831 0.0717,0.19568 0.33348,0.19568 0.25632,0 0.41617,-0.22876 0.16261,-0.22875 0.26183,-0.74138 z m 0.93707,-0.42719 -0.48231,2.50802 0.36655,-0.006 -0.0661,0.339 h -1.2237 l 0.0717,-0.37207 q -0.30317,0.452 -0.8406,0.452 -0.53193,0 -0.76895,-0.35003 -0.23702,-0.35277 -0.11575,-0.96462 0.11851,-0.61461 0.64767,-1.14653 0.62563,-0.62838 1.46348,-0.62838 0.82682,0 0.94809,0.16812 z"
         style="font-style:italic;font-weight:bold;fill:#515151;fill-opacity:1;stroke:none;stroke-opacity:1;stroke-width:0.127;stroke-dasharray:none"
         id="path1041" /><path
         d="m 115.49133,123.06334 0.50437,-2.59622 h -0.41617 l 0.0634,-0.33349 h 1.39182 l -0.0799,0.41341 q 0.22875,-0.26182 0.4768,-0.37758 0.24805,-0.11575 0.59256,-0.11575 0.49333,0 0.68901,0.29214 0.12678,0.18466 0.12678,0.48231 0,0.16812 -0.0413,0.37207 l -0.29765,1.52962 h 0.41892 l -0.0634,0.33349 H 117.462 l 0.36655,-1.89067 q 0.0386,-0.19292 0.0386,-0.32521 0,-0.12127 -0.0331,-0.19293 -0.0662,-0.14332 -0.30042,-0.14332 -0.2949,0 -0.4768,0.21773 -0.17914,0.21498 -0.27009,0.68627 l -0.31971,1.64813 z"
         style="font-style:italic;font-weight:bold;fill:#515151;fill-opacity:1;stroke:none;stroke-opacity:1;stroke-width:0.127;stroke-dasharray:none"
         id="path1043" /><path
         d="m 121.99842,120.64902 q -0.0138,-0.16537 -0.19016,-0.16537 -0.50161,0 -0.8158,0.44098 -0.19568,0.27836 -0.3142,0.8847 -0.0992,0.50987 -0.0165,0.70831 0.0854,0.19568 0.38585,0.19568 0.28663,0 0.46302,-0.22876 0.17639,-0.22875 0.27561,-0.74138 z m 1.0418,-0.33073 -0.52641,2.70646 q -0.13229,0.678 -0.62563,0.95361 -0.60082,0.33899 -1.30638,0.33899 -0.29214,0 -0.58429,-0.0469 -0.29214,-0.0441 -0.59255,-0.13505 l 0.1378,-0.70004 h 0.31144 q -0.003,0.0248 -0.003,0.0468 0,0.25356 0.15159,0.3831 0.16536,0.14056 0.52089,0.14056 0.452,0 0.678,-0.21773 0.22875,-0.21498 0.33624,-0.76344 l 0.0634,-0.33348 q -0.33624,0.452 -0.95636,0.452 -0.6146,0 -0.89848,-0.35003 -0.28387,-0.35277 -0.16536,-0.96462 0.14607,-0.74965 0.84336,-1.28984 0.62562,-0.48507 1.5434,-0.48507 0.74138,0 1.07211,0.26458 z"
         style="font-style:italic;font-weight:bold;fill:#515151;fill-opacity:1;stroke:none;stroke-opacity:1;stroke-width:0.127;stroke-dasharray:none"
         id="path1045" /><path
         d="m 125.5951,120.77029 q 0,-0.40515 -0.34175,-0.40515 -0.26183,0 -0.41617,0.24805 -0.15434,0.24529 -0.2949,1.01975 0,0 0.0606,0 0.84336,0 0.9729,-0.66973 0.0193,-0.10473 0.0193,-0.19292 z m -1.11897,1.19062 q -0.0165,0.0937 -0.0165,0.28939 0.003,0.58153 0.56775,0.58153 0.31695,0 0.5457,-0.16812 0.22876,-0.16812 0.34451,-0.48783 h 0.45751 q -0.21497,0.49885 -0.61461,0.73312 -0.39687,0.23427 -1.03077,0.23427 -0.76067,0 -1.08865,-0.39964 -0.22875,-0.28111 -0.22875,-0.72484 0,-0.19017 0.0441,-0.41341 0.14056,-0.73588 0.63665,-1.14377 0.49609,-0.4079 1.2237,-0.4079 0.52641,0 0.89021,0.2067 0.36656,0.20395 0.36656,0.57602 0,0.0744 -0.0165,0.15434 -0.17363,0.89297 -2.08084,0.97014 z"
         style="font-style:italic;font-weight:bold;fill:#515151;fill-opacity:1;stroke:none;stroke-opacity:1;stroke-width:0.127;stroke-dasharray:none"
         id="path1047" /><path
         d="m 132.81602,121.88925 q -0.28663,0.63665 -0.76895,0.94534 -0.48231,0.30868 -1.19338,0.30868 -1.04179,0 -1.53513,-0.57327 -0.49058,-0.57602 -0.30041,-1.55994 0.19017,-0.98667 0.90674,-1.55993 0.71934,-0.57602 1.76114,-0.57602 0.36655,0 0.74414,0.0882 0.38033,0.0882 0.78823,0.26734 l -0.19568,1.01148 h -0.35002 q -0.006,-0.51814 -0.23978,-0.77446 -0.23426,-0.25907 -0.70004,-0.25907 -0.60082,0 -0.97841,0.44373 -0.37758,0.44097 -0.55672,1.35874 -0.17915,0.91778 0.0276,1.35875 0.2067,0.44097 0.81304,0.44097 0.41065,0 0.71382,-0.22875 0.30593,-0.22876 0.51539,-0.69178 z"
         style="font-style:italic;font-weight:bold;fill:#515151;fill-opacity:1;stroke:none;stroke-opacity:1;stroke-width:0.127;stroke-dasharray:none"
         id="path1049" /><path
         d="m 134.9189,122.83183 q 0.30868,0 0.48507,-0.26458 0.17639,-0.26459 0.31419,-0.97014 0.0909,-0.46027 0.0909,-0.73312 0,-0.14331 -0.0276,-0.23702 -0.0717,-0.26183 -0.38309,-0.26183 -0.31144,0 -0.49058,0.26734 -0.17915,0.26458 -0.3142,0.96463 -0.0882,0.45199 -0.0882,0.72209 0,0.15158 0.0276,0.24529 0.0744,0.26734 0.38585,0.26734 z m 1.23197,-0.0992 q -0.51815,0.41066 -1.2926,0.41066 -0.77446,0 -1.13275,-0.41066 -0.25907,-0.29766 -0.25907,-0.75516 0,-0.17639 0.0386,-0.38034 0.14056,-0.72485 0.6587,-1.13275 0.5209,-0.41065 1.29535,-0.41065 0.77722,0 1.1355,0.4079 0.25908,0.2949 0.25908,0.7524 0,0.17915 -0.0413,0.3831 -0.14056,0.72209 -0.66145,1.1355 z"
         style="font-style:italic;font-weight:bold;fill:#515151;fill-opacity:1;stroke:none;stroke-opacity:1;stroke-width:0.127;stroke-dasharray:none"
         id="path1051" /><path
         d="m 137.35527,123.06334 0.50436,-2.59622 h -0.41616 l 0.0634,-0.33349 h 1.39181 l -0.0799,0.41341 q 0.22875,-0.26182 0.4768,-0.37758 0.24804,-0.11575 0.59255,-0.11575 0.49334,0 0.68902,0.29214 0.12678,0.18466 0.12678,0.48231 0,0.16812 -0.0413,0.37207 l -0.29766,1.52962 h 0.41893 l -0.0634,0.33349 h -1.39458 l 0.36656,-1.89067 q 0.0386,-0.19292 0.0386,-0.32521 0,-0.12127 -0.0331,-0.19293 -0.0661,-0.14332 -0.30041,-0.14332 -0.2949,0 -0.4768,0.21773 -0.17914,0.21498 -0.27009,0.68627 l -0.31971,1.64813 z"
         style="font-style:italic;font-weight:bold;fill:#515151;fill-opacity:1;stroke:none;stroke-opacity:1;stroke-width:0.127;stroke-dasharray:none"
         id="path1053" /><path
         d="m 141.84216,120.46712 h -0.42444 l 0.0634,-0.33349 h 0.42444 l 0.17638,-0.9095 h 0.97565 l -0.17638,0.9095 h 0.81304 l -0.0634,0.33349 h -0.81304 l -0.35003,1.7942 q -0.0469,0.24529 -0.0469,0.36932 0,0.0744 0.0138,0.10748 0.0441,0.0937 0.20395,0.0937 0.17639,0 0.28388,-0.11851 0.10748,-0.11851 0.16261,-0.36656 h 0.41065 q -0.11024,0.44097 -0.36105,0.62012 -0.2508,0.17639 -0.77996,0.17639 -0.60358,0 -0.78273,-0.19017 -0.11575,-0.12127 -0.11575,-0.37483 0,-0.1378 0.0358,-0.31695 z"
         style="font-style:italic;font-weight:bold;fill:#515151;fill-opacity:1;stroke:none;stroke-opacity:1;stroke-width:0.127;stroke-dasharray:none"
         id="path1055" /><path
         d="m 147.06492,120.10056 -0.17088,0.87367 h -0.31144 q 0.008,-0.0579 0.008,-0.10748 0,-0.15434 -0.0661,-0.23978 -0.0882,-0.11576 -0.29766,-0.11576 -0.3197,0 -0.55948,0.28112 -0.23978,0.28112 -0.33624,0.77997 l -0.28939,1.49104 h -0.97565 l 0.50436,-2.59622 h -0.44648 l 0.0634,-0.33349 h 1.42214 l -0.0992,0.5209 q 0.20119,-0.30592 0.46578,-0.452 0.26458,-0.14882 0.60633,-0.14882 0.0854,0 0.20395,0.0138 0.12127,0.011 0.27837,0.0331 z"
         style="font-style:italic;font-weight:bold;fill:#515151;fill-opacity:1;stroke:none;stroke-opacity:1;stroke-width:0.127;stroke-dasharray:none"
         id="path1057" /><path
         d="m 148.36854,122.83183 q 0.30868,0 0.48507,-0.26458 0.17639,-0.26459 0.3142,-0.97014 0.0909,-0.46027 0.0909,-0.73312 0,-0.14331 -0.0276,-0.23702 -0.0717,-0.26183 -0.3831,-0.26183 -0.31144,0 -0.49058,0.26734 -0.17915,0.26458 -0.31419,0.96463 -0.0882,0.45199 -0.0882,0.72209 0,0.15158 0.0276,0.24529 0.0744,0.26734 0.38585,0.26734 z m 1.23197,-0.0992 q -0.51814,0.41066 -1.2926,0.41066 -0.77446,0 -1.13275,-0.41066 -0.25907,-0.29766 -0.25907,-0.75516 0,-0.17639 0.0386,-0.38034 0.14056,-0.72485 0.6587,-1.13275 0.5209,-0.41065 1.29535,-0.41065 0.77722,0 1.13551,0.4079 0.25907,0.2949 0.25907,0.7524 0,0.17915 -0.0413,0.3831 -0.14056,0.72209 -0.66146,1.1355 z"
         style="font-style:italic;font-weight:bold;fill:#515151;fill-opacity:1;stroke:none;stroke-opacity:1;stroke-width:0.127;stroke-dasharray:none"
         id="path1059" /><path
         d="m 151.71993,122.72985 h 0.41892 l -0.0634,0.33349 h -1.39457 l 0.76894,-3.95772 h -0.41617 l 0.0634,-0.33073 h 1.39182 z"
         style="font-style:italic;font-weight:bold;fill:#515151;fill-opacity:1;stroke:none;stroke-opacity:1;stroke-width:0.127;stroke-dasharray:none"
         id="path1061" /><path
         d="m 154.1563,123.06334 0.0634,-0.33349 h 0.33625 l 2.28478,-3.78133 h 0.6587 l 0.8158,3.78133 h 0.39136 l -0.0634,0.33349 h -1.92649 l 0.0634,-0.33349 h 0.40238 l -0.17363,-0.8406 h -1.54616 l -0.50987,0.8406 h 0.49058 l -0.0634,0.33349 z m 1.50481,-1.50757 h 1.27606 l -0.32797,-1.57372 z"
         style="font-style:italic;font-weight:bold;fill:#515151;fill-opacity:1;stroke:none;stroke-opacity:1;stroke-width:0.127;stroke-dasharray:none"
         id="path1063" /><path
         d="m 160.80947,123.06334 0.0634,-0.33349 h 0.52641 l 0.67248,-3.44784 h -0.52641 l 0.0634,-0.33349 h 2.43912 q 0.75241,0 1.08038,0.25356 0.32798,0.25356 0.22876,0.76343 -0.0689,0.36656 -0.37207,0.58153 -0.30317,0.21498 -0.82682,0.2701 0.60909,0.0579 0.88745,0.33073 0.27837,0.27285 0.19017,0.72485 -0.11851,0.61184 -0.63665,0.90123 -0.51814,0.28939 -1.50206,0.28939 z m 2.05327,-2.39779 h 0.36105 q 0.47404,0 0.73587,-0.17087 0.26183,-0.17363 0.33073,-0.52917 0.0717,-0.35829 -0.11851,-0.5209 -0.19017,-0.1626 -0.678,-0.1626 h -0.36104 z m -0.40239,2.0643 h 0.39412 q 0.52641,0 0.82131,-0.20946 0.2949,-0.20946 0.38034,-0.64767 0.0854,-0.44098 -0.12953,-0.65871 -0.21222,-0.21773 -0.73312,-0.21773 h -0.39412 z"
         style="font-style:italic;font-weight:bold;fill:#515151;fill-opacity:1;stroke:none;stroke-opacity:1;stroke-width:0.127;stroke-dasharray:none"
         id="path1065" /><path
         d="m 169.02807,120.10056 -0.17087,0.87367 h -0.31144 q 0.008,-0.0579 0.008,-0.10748 0,-0.15434 -0.0662,-0.23978 -0.0882,-0.11576 -0.29765,-0.11576 -0.31971,0 -0.55949,0.28112 -0.23977,0.28112 -0.33624,0.77997 l -0.28938,1.49104 h -0.97565 l 0.50436,-2.59622 h -0.44649 l 0.0634,-0.33349 h 1.42214 l -0.0992,0.5209 q 0.20119,-0.30592 0.46577,-0.452 0.26459,-0.14882 0.60634,-0.14882 0.0854,0 0.20395,0.0138 0.12127,0.011 0.27836,0.0331 z"
         style="font-style:italic;font-weight:bold;fill:#515151;fill-opacity:1;stroke:none;stroke-opacity:1;stroke-width:0.127;stroke-dasharray:none"
         id="path1067" /><path
         d="m 171.05655,120.77029 q 0,-0.40515 -0.34175,-0.40515 -0.26183,0 -0.41617,0.24805 -0.15434,0.24529 -0.2949,1.01975 0,0 0.0606,0 0.84336,0 0.9729,-0.66973 0.0193,-0.10473 0.0193,-0.19292 z m -1.11897,1.19062 q -0.0165,0.0937 -0.0165,0.28939 0.003,0.58153 0.56775,0.58153 0.31695,0 0.5457,-0.16812 0.22875,-0.16812 0.34451,-0.48783 h 0.45751 q -0.21498,0.49885 -0.61461,0.73312 -0.39687,0.23427 -1.03077,0.23427 -0.76067,0 -1.08865,-0.39964 -0.22875,-0.28111 -0.22875,-0.72484 0,-0.19017 0.0441,-0.41341 0.14056,-0.73588 0.63665,-1.14377 0.49609,-0.4079 1.2237,-0.4079 0.52641,0 0.89021,0.2067 0.36656,0.20395 0.36656,0.57602 0,0.0744 -0.0165,0.15434 -0.17363,0.89297 -2.08084,0.97014 z"
         style="font-style:italic;font-weight:bold;fill:#515151;fill-opacity:1;stroke:none;stroke-opacity:1;stroke-width:0.127;stroke-dasharray:none"
         id="path1069" /><path
         d="m 174.64771,120.77029 q 0,-0.40515 -0.34175,-0.40515 -0.26183,0 -0.41617,0.24805 -0.15434,0.24529 -0.2949,1.01975 0,0 0.0606,0 0.84335,0 0.97289,-0.66973 0.0193,-0.10473 0.0193,-0.19292 z m -1.11896,1.19062 q -0.0165,0.0937 -0.0165,0.28939 0.003,0.58153 0.56775,0.58153 0.31695,0 0.5457,-0.16812 0.22876,-0.16812 0.34451,-0.48783 h 0.45751 q -0.21497,0.49885 -0.6146,0.73312 -0.39688,0.23427 -1.03077,0.23427 -0.76068,0 -1.08865,-0.39964 -0.22876,-0.28111 -0.22876,-0.72484 0,-0.19017 0.0441,-0.41341 0.14056,-0.73588 0.63665,-1.14377 0.4961,-0.4079 1.2237,-0.4079 0.52641,0 0.89021,0.2067 0.36656,0.20395 0.36656,0.57602 0,0.0744 -0.0165,0.15434 -0.17363,0.89297 -2.08083,0.97014 z"
         style="font-style:italic;font-weight:bold;fill:#515151;fill-opacity:1;stroke:none;stroke-opacity:1;stroke-width:0.127;stroke-dasharray:none"
         id="path1071" /><path
         d="m 179.10704,120.46161 -1.92925,2.06429 q 0.091,0.0331 0.17087,0.0799 0.35003,0.18741 0.56776,0.18741 0.33072,0 0.82682,-0.39963 l -0.0854,0.43546 q -0.48783,0.46302 -0.9288,0.46302 -0.22875,-0.011 -0.58153,-0.18741 -0.39412,-0.20119 -0.54846,-0.20119 -0.15434,0 -0.31419,0.0634 -0.15985,0.0634 -0.226,0.10197 l -0.27285,-0.006 0.0634,-0.33349 1.92374,-2.06154 q -0.0882,-0.0303 -0.16536,-0.0772 -0.35003,-0.18741 -0.56776,-0.18741 -0.33072,0 -0.82682,0.39963 l 0.0854,-0.43546 q 0.48783,-0.46302 0.9288,-0.46302 0.22875,0.011 0.58153,0.18741 0.39412,0.20119 0.54846,0.20119 0.15434,0 0.31419,-0.0634 0.15985,-0.0634 0.226,-0.10197 l 0.27285,0.006 z"
         style="font-style:italic;font-weight:bold;fill:#515151;fill-opacity:1;stroke:none;stroke-opacity:1;stroke-width:0.127;stroke-dasharray:none"
         id="path1073" /><path
         d="m 181.44419,120.77029 q 0,-0.40515 -0.34175,-0.40515 -0.26183,0 -0.41617,0.24805 -0.15434,0.24529 -0.2949,1.01975 0,0 0.0606,0 0.84336,0 0.9729,-0.66973 0.0193,-0.10473 0.0193,-0.19292 z m -1.11897,1.19062 q -0.0165,0.0937 -0.0165,0.28939 0.003,0.58153 0.56775,0.58153 0.31695,0 0.5457,-0.16812 0.22876,-0.16812 0.34451,-0.48783 h 0.45751 q -0.21497,0.49885 -0.6146,0.73312 -0.39688,0.23427 -1.03078,0.23427 -0.76067,0 -1.08865,-0.39964 -0.22875,-0.28111 -0.22875,-0.72484 0,-0.19017 0.0441,-0.41341 0.14056,-0.73588 0.63665,-1.14377 0.49609,-0.4079 1.2237,-0.4079 0.52641,0 0.89021,0.2067 0.36656,0.20395 0.36656,0.57602 0,0.0744 -0.0165,0.15434 -0.17363,0.89297 -2.08084,0.97014 z"
         style="font-style:italic;font-weight:bold;fill:#515151;fill-opacity:1;stroke:none;stroke-opacity:1;stroke-width:0.127;stroke-dasharray:none"
         id="path1075" /></g><g
       id="g3105"
       transform="matrix(0.42092425,0,0,0.42092425,32.471638,77.790011)"
       style="display:inline"><path
         id="path833"
         style="display:inline;stroke-width:0.915696;fill:#f05133;fill-opacity:1"
         d="M 83.212084 27.612402 C 81.82526 27.612402 80.437783 28.141721 79.379237 29.199805 L 71.751601 36.829896 L 80.568868 45.645935 A 0.21502364 0.21502364 0 0 1 80.653578 45.537898 A 0.21502364 0.21502364 0 0 1 80.864741 45.56368 L 81.462626 46.006876 C 81.525366 45.986769 81.589408 45.969947 81.652918 45.95163 L 81.904594 45.248163 A 0.21502364 0.21502364 0 0 1 82.065421 45.109435 A 0.21502364 0.21502364 0 0 1 82.266763 45.17573 L 82.768888 45.72819 C 82.833569 45.720908 82.898881 45.716449 82.96409 45.711002 L 83.349585 45.068921 A 0.21502364 0.21502364 0 0 1 83.533738 44.964567 A 0.21502364 0.21502364 0 0 1 83.717892 45.068921 L 84.102158 45.711002 C 84.168184 45.716506 84.234333 45.720806 84.299816 45.72819 L 84.800714 45.17573 A 0.21502364 0.21502364 0 0 1 85.002055 45.109435 A 0.21502364 0.21502364 0 0 1 85.161655 45.248163 L 85.414559 45.95163 C 85.478069 45.969947 85.542111 45.986769 85.604851 46.006876 L 86.202735 45.56368 A 0.21502364 0.21502364 0 0 1 86.413898 45.537898 A 0.21502364 0.21502364 0 0 1 86.544033 45.704864 L 86.654525 46.446389 C 86.712238 46.476325 86.77089 46.504484 86.827629 46.53601 L 87.502859 46.218038 A 0.21502364 0.21502364 0 0 1 87.647726 46.203306 A 0.21502364 0.21502364 0 0 1 87.809781 46.421835 L 87.77295 47.171953 C 87.823465 47.212314 87.873398 47.252971 87.922728 47.294722 L 88.650748 47.113024 A 0.21502364 0.21502364 0 0 1 88.911019 47.373294 L 88.729321 48.101314 C 88.770884 48.150434 88.810676 48.200799 88.850862 48.251092 L 89.60098 48.214262 A 0.21502364 0.21502364 0 0 1 89.790044 48.308794 A 0.21502364 0.21502364 0 0 1 89.806004 48.521184 L 89.486805 49.195186 C 89.518619 49.252409 89.547457 49.311303 89.577654 49.369517 L 90.319179 49.48001 A 0.21502364 0.21502364 0 0 1 90.486144 49.610145 A 0.21502364 0.21502364 0 0 1 90.460363 49.821307 L 90.017167 50.417964 C 90.037402 50.481067 90.053989 50.545602 90.072413 50.609484 L 90.775879 50.86116 A 0.21502364 0.21502364 0 0 1 90.914608 51.021988 A 0.21502364 0.21502364 0 0 1 90.848313 51.223329 L 90.295852 51.722998 C 90.303248 51.788482 90.307525 51.854631 90.31304 51.920656 L 90.953894 52.306151 A 0.21502364 0.21502364 0 0 1 91.058248 52.490304 A 0.21502364 0.21502364 0 0 1 90.953894 52.674458 L 90.31304 53.058725 C 90.307537 53.12475 90.303237 53.190899 90.295852 53.256383 L 90.847085 53.75728 A 0.21502364 0.21502364 0 0 1 90.914608 53.958621 A 0.21502364 0.21502364 0 0 1 90.775879 54.118221 L 90.072413 54.371125 C 90.054096 54.434635 90.037274 54.498677 90.017167 54.561417 L 90.460363 55.159302 A 0.21502364 0.21502364 0 0 1 90.502104 55.298031 A 0.21502364 0.21502364 0 0 1 90.342505 55.474818 L 98.064672 63.196985 A 0.21502364 0.21502364 0 0 1 98.078177 63.17857 A 0.21502364 0.21502364 0 0 1 98.289339 63.204352 L 98.887224 63.647547 C 98.949965 63.627438 99.014006 63.610621 99.077516 63.592301 L 99.329193 62.888835 A 0.21502364 0.21502364 0 0 1 99.49002 62.750106 A 0.21502364 0.21502364 0 0 1 99.691361 62.816402 L 100.19349 63.368862 C 100.25817 63.361572 100.32349 63.357074 100.38869 63.351674 L 100.77418 62.709593 A 0.21502364 0.21502364 0 0 1 100.95834 62.605239 A 0.21502364 0.21502364 0 0 1 101.14249 62.709593 L 101.52676 63.351674 C 101.59278 63.357184 101.65892 63.361462 101.72441 63.368862 L 102.22531 62.816402 A 0.21502364 0.21502364 0 0 1 102.42665 62.750106 A 0.21502364 0.21502364 0 0 1 102.58625 62.888835 L 102.83916 63.592301 C 102.90267 63.610621 102.96675 63.627438 103.02945 63.647547 L 103.62733 63.204352 A 0.21502364 0.21502364 0 0 1 103.8385 63.17857 A 0.21502364 0.21502364 0 0 1 103.96863 63.345536 L 104.07912 64.08706 C 104.13684 64.11699 104.19553 64.145152 104.25223 64.176682 L 104.92746 63.85871 A 0.21502364 0.21502364 0 0 1 105.07232 63.843978 A 0.21502364 0.21502364 0 0 1 105.23438 64.062507 L 105.19755 64.812625 C 105.24803 64.852984 105.29803 64.893644 105.34733 64.935394 L 106.07535 64.753696 A 0.21502364 0.21502364 0 0 1 106.33562 65.013966 L 106.15392 65.741986 C 106.19546 65.791106 106.23526 65.841474 106.27546 65.891764 L 107.02558 65.854933 A 0.21502364 0.21502364 0 0 1 107.21464 65.949465 A 0.21502364 0.21502364 0 0 1 107.2306 66.161856 L 106.9114 66.835857 C 106.9432 66.893081 106.97205 66.95198 107.00225 67.010189 L 107.74378 67.120681 A 0.21502364 0.21502364 0 0 1 107.91074 67.250816 A 0.21502364 0.21502364 0 0 1 107.88496 67.461979 L 107.44177 68.058636 C 107.46197 68.121739 107.47861 68.186276 107.49701 68.250156 L 108.20048 68.501832 A 0.21502364 0.21502364 0 0 1 108.33921 68.662659 A 0.21502364 0.21502364 0 0 1 108.27291 68.864001 L 107.72045 69.36367 C 107.72765 69.429154 107.73164 69.495308 107.73764 69.561328 L 108.37849 69.946823 A 0.21502364 0.21502364 0 0 1 108.48285 70.130976 A 0.21502364 0.21502364 0 0 1 108.37849 70.31513 L 107.73764 70.699397 C 107.73214 70.765421 107.72745 70.831575 107.72045 70.897055 L 108.27168 71.397952 A 0.21502364 0.21502364 0 0 1 108.33921 71.599293 A 0.21502364 0.21502364 0 0 1 108.20048 71.758893 L 107.49701 72.011797 C 107.47871 72.075307 107.46187 72.13935 107.44177 72.202089 L 107.88496 72.799973 A 0.21502364 0.21502364 0 0 1 107.9267 72.938702 A 0.21502364 0.21502364 0 0 1 107.74378 73.141271 L 107.00225 73.251763 C 106.97225 73.309685 106.9431 73.367928 106.9114 73.424867 L 107.2306 74.100097 A 0.21502364 0.21502364 0 0 1 107.02558 74.407019 L 106.27546 74.370188 C 106.23532 74.420476 106.19552 74.470847 106.15392 74.519967 L 106.33562 75.247986 A 0.21502364 0.21502364 0 0 1 106.07535 75.508257 L 105.34733 75.326559 C 105.29821 75.36812 105.24785 75.407909 105.19755 75.4481 L 105.23438 76.198218 A 0.21502364 0.21502364 0 0 1 104.92746 76.403242 L 104.25346 76.084043 C 104.19623 76.115852 104.13732 76.144692 104.07912 76.174892 L 103.96863 76.916417 A 0.21502364 0.21502364 0 0 1 103.62733 77.057601 L 103.03068 76.614405 C 102.96757 76.634645 102.90306 76.651231 102.83916 76.669651 L 102.58748 77.373117 A 0.21502364 0.21502364 0 0 1 102.22531 77.444323 L 101.72441 76.893091 C 101.65933 76.900479 101.59358 76.904778 101.52798 76.910278 L 101.14249 77.551132 A 0.21502364 0.21502364 0 0 1 100.77418 77.551132 L 100.38992 76.910278 C 100.32348 76.904738 100.25693 76.900489 100.19103 76.893091 L 99.691361 77.444323 A 0.21502364 0.21502364 0 0 1 99.33042 77.373117 L 99.077516 76.669651 C 99.013633 76.651221 98.949095 76.634635 98.885997 76.614405 L 98.289339 77.057601 A 0.21502364 0.21502364 0 0 1 97.948042 76.916417 L 97.83755 76.174892 C 97.779336 76.144692 97.720438 76.115852 97.663218 76.084043 L 96.989216 76.403242 A 0.21502364 0.21502364 0 0 1 96.682294 76.198218 L 96.719124 75.4481 C 96.668827 75.407919 96.618466 75.368118 96.569346 75.326559 L 95.841326 75.508257 A 0.21502364 0.21502364 0 0 1 95.581056 75.247986 L 95.762754 74.519967 C 95.721192 74.470847 95.681403 74.420479 95.641213 74.370188 L 94.891095 74.407019 A 0.21502364 0.21502364 0 0 1 94.68607 74.100097 L 95.00527 73.424867 C 94.9737 73.368083 94.945628 73.309523 94.915648 73.251763 L 94.172896 73.141271 A 0.21502364 0.21502364 0 0 1 94.031712 72.799973 L 94.474908 72.202089 C 94.454798 72.13935 94.437982 72.075307 94.419662 72.011797 L 93.716196 71.758893 A 0.21502364 0.21502364 0 0 1 93.643762 71.397952 L 94.196222 70.897055 C 94.188832 70.831571 94.184535 70.765426 94.179035 70.699397 L 93.538181 70.31513 A 0.21502364 0.21502364 0 0 1 93.538181 69.946823 L 94.179035 69.561328 C 94.184555 69.495303 94.188822 69.42915 94.196222 69.36367 L 93.643762 68.864001 A 0.21502364 0.21502364 0 0 1 93.716196 68.501832 L 94.419662 68.250156 C 94.438092 68.186274 94.454678 68.121736 94.474908 68.058636 L 94.031712 67.460751 A 0.21502364 0.21502364 0 0 1 94.172896 67.120681 L 94.449126 67.080168 L 86.557538 59.188579 L 86.544033 59.275745 A 0.21502364 0.21502364 0 0 1 86.34392 59.434117 L 86.34392 80.795916 A 0.21502364 0.21502364 0 0 1 86.459322 80.782411 A 0.21502364 0.21502364 0 0 1 86.589458 80.949377 L 86.69995 81.690901 C 86.757663 81.720838 86.816315 81.748998 86.873054 81.780523 L 87.548283 81.462551 A 0.21502364 0.21502364 0 0 1 87.693151 81.447819 A 0.21502364 0.21502364 0 0 1 87.855206 81.666348 L 87.818375 82.416466 C 87.86889 82.456828 87.918822 82.497484 87.968153 82.539235 L 88.696173 82.357537 A 0.21502364 0.21502364 0 0 1 88.956443 82.617807 L 88.774745 83.345827 C 88.816309 83.394948 88.856101 83.445312 88.896286 83.495605 L 89.646405 83.458775 A 0.21502364 0.21502364 0 0 1 89.835469 83.553307 A 0.21502364 0.21502364 0 0 1 89.851429 83.765697 L 89.53223 84.439698 C 89.564043 84.496922 89.592882 84.555816 89.623079 84.61403 L 90.364603 84.724522 A 0.21502364 0.21502364 0 0 1 90.531569 84.854658 A 0.21502364 0.21502364 0 0 1 90.505787 85.06582 L 90.062591 85.662477 C 90.082827 85.725579 90.099413 85.790114 90.117837 85.853997 L 90.821304 86.105673 A 0.21502364 0.21502364 0 0 1 90.960033 86.266501 A 0.21502364 0.21502364 0 0 1 90.893737 86.467842 L 90.341277 86.967511 C 90.348673 87.032995 90.352951 87.099144 90.358465 87.165169 L 90.999319 87.550664 A 0.21502364 0.21502364 0 0 1 91.103672 87.734817 A 0.21502364 0.21502364 0 0 1 90.999319 87.918971 L 90.358465 88.303238 C 90.352962 88.369263 90.348662 88.435412 90.341277 88.500896 L 90.89251 89.001793 A 0.21502364 0.21502364 0 0 1 90.960033 89.203134 A 0.21502364 0.21502364 0 0 1 90.821304 89.362734 L 90.117837 89.615638 C 90.099521 89.679148 90.082698 89.743189 90.062591 89.80593 L 90.505787 90.403815 A 0.21502364 0.21502364 0 0 1 90.547529 90.542543 A 0.21502364 0.21502364 0 0 1 90.364603 90.745112 L 89.623079 90.855604 C 89.593025 90.913526 89.563884 90.971769 89.53223 91.028709 L 89.851429 91.703938 A 0.21502364 0.21502364 0 0 1 89.646405 92.01086 L 88.896286 91.97403 C 88.856101 92.024324 88.816309 92.074687 88.774745 92.123808 L 88.956443 92.851828 A 0.21502364 0.21502364 0 0 1 88.696173 93.112098 L 87.968153 92.9304 C 87.919033 92.971962 87.868669 93.011756 87.818375 93.051941 L 87.855206 93.802059 A 0.21502364 0.21502364 0 0 1 87.548283 94.007084 L 86.874282 93.687884 C 86.817058 93.719697 86.758164 93.748537 86.69995 93.778733 L 86.589458 94.520258 A 0.21502364 0.21502364 0 0 1 86.24816 94.661442 L 85.651503 94.218246 C 85.5884 94.238482 85.523865 94.255068 85.459983 94.273492 L 85.208307 94.976958 A 0.21502364 0.21502364 0 0 1 84.846138 95.048164 L 84.345241 94.496932 C 84.280159 94.50427 84.214428 94.508638 84.148811 94.514119 L 83.763316 95.154973 A 0.21502364 0.21502364 0 0 1 83.395009 95.154973 L 83.010742 94.514119 C 82.944309 94.508582 82.877742 94.504374 82.811857 94.496932 L 82.312187 95.048164 A 0.21502364 0.21502364 0 0 1 81.951246 94.976958 L 81.698342 94.273492 C 81.63446 94.255068 81.569925 94.238482 81.506823 94.218246 L 80.910166 94.661442 A 0.21502364 0.21502364 0 0 1 80.568868 94.520258 L 80.458376 93.778733 C 80.400162 93.748537 80.341267 93.719697 80.284044 93.687884 L 79.610042 94.007084 A 0.21502364 0.21502364 0 0 1 79.30312 93.802059 L 79.339951 93.051941 C 79.289657 93.011756 79.239293 92.971962 79.190172 92.9304 L 78.462152 93.112098 A 0.21502364 0.21502364 0 0 1 78.201882 92.851828 L 78.38358 92.123808 C 78.342017 92.074687 78.302225 92.024324 78.262039 91.97403 L 77.511921 92.01086 A 0.21502364 0.21502364 0 0 1 77.306897 91.703938 L 77.626096 91.028709 C 77.594527 90.971924 77.566451 90.913365 77.536475 90.855604 L 76.793722 90.745112 A 0.21502364 0.21502364 0 0 1 76.652538 90.403815 L 77.095734 89.80593 C 77.075627 89.743189 77.058805 89.679148 77.040488 89.615638 L 76.337022 89.362734 A 0.21502364 0.21502364 0 0 1 76.264588 89.001793 L 76.817048 88.500896 C 76.809665 88.435412 76.805363 88.369263 76.799861 88.303238 L 76.159007 87.918971 A 0.21502364 0.21502364 0 0 1 76.159007 87.550664 L 76.799861 87.165169 C 76.805375 87.099144 76.809652 87.032995 76.817048 86.967511 L 76.264588 86.467842 A 0.21502364 0.21502364 0 0 1 76.337022 86.105673 L 77.040488 85.853997 C 77.058912 85.790114 77.075499 85.725579 77.095734 85.662477 L 76.652538 85.064592 A 0.21502364 0.21502364 0 0 1 76.793722 84.724522 L 77.535247 84.61403 C 77.565443 84.555816 77.594282 84.496922 77.626096 84.439698 L 77.306897 83.764469 A 0.21502364 0.21502364 0 0 1 77.511921 83.458775 L 78.262039 83.495605 C 78.302225 83.445312 78.342017 83.394948 78.38358 83.345827 L 78.201882 82.617807 A 0.21502364 0.21502364 0 0 1 78.462152 82.357537 L 79.188945 82.539235 C 79.238501 82.497282 79.2892 82.457015 79.339951 82.416466 L 79.30312 81.667575 A 0.21502364 0.21502364 0 0 1 79.610042 81.462551 L 80.285272 81.780523 C 80.342011 81.748998 80.400663 81.720838 80.458376 81.690901 L 80.568868 80.949377 A 0.21502364 0.21502364 0 0 1 80.699003 80.782411 A 0.21502364 0.21502364 0 0 1 80.910166 80.808193 L 81.042756 80.906408 L 81.042756 59.284339 L 80.864741 59.416929 A 0.21502364 0.21502364 0 0 1 80.523443 59.275745 L 80.412951 58.53422 C 80.354737 58.504024 80.295843 58.475185 80.238619 58.443371 L 79.564618 58.762571 A 0.21502364 0.21502364 0 0 1 79.257695 58.557546 L 79.294526 57.807428 C 79.244233 57.767242 79.193868 57.727451 79.144748 57.685887 L 78.416728 57.867585 A 0.21502364 0.21502364 0 0 1 78.156458 57.607315 L 78.338156 56.879295 C 78.296592 56.830175 78.2568 56.77981 78.216615 56.729517 L 77.466496 56.766347 A 0.21502364 0.21502364 0 0 1 77.261472 56.459425 L 77.580671 55.784196 C 77.549103 55.727411 77.521026 55.668851 77.49105 55.611091 L 76.748298 55.500599 A 0.21502364 0.21502364 0 0 1 76.607113 55.159302 L 77.050309 54.561417 C 77.030203 54.498677 77.01338 54.434635 76.995063 54.371125 L 76.291597 54.118221 A 0.21502364 0.21502364 0 0 1 76.219164 53.75728 L 76.771624 53.256383 C 76.76424 53.190899 76.759939 53.12475 76.754436 53.058725 L 76.113582 52.674458 A 0.21502364 0.21502364 0 0 1 76.113582 52.306151 L 76.754436 51.920656 C 76.759951 51.854631 76.764228 51.788482 76.771624 51.722998 L 76.219164 51.223329 A 0.21502364 0.21502364 0 0 1 76.291597 50.86116 L 76.995063 50.609484 C 77.013488 50.545602 77.030074 50.481067 77.050309 50.417964 L 76.607113 49.82008 A 0.21502364 0.21502364 0 0 1 76.748298 49.48001 L 76.884571 49.460366 L 68.003465 40.576805 L 42.812502 65.764084 C 40.696327 67.882125 40.696327 71.31361 42.812502 73.429778 L 79.551113 110.16593 C 81.666374 112.2821 85.096354 112.2821 87.214352 110.16593 L 123.77986 73.600427 C 125.89604 71.484259 125.89604 68.050899 123.77986 65.934733 L 87.043703 29.199805 C 85.986074 28.141721 84.598907 27.612402 83.212084 27.612402 z " /></g></g></svg>
